<svg width="34" height="32" version="1.1" xmlns="http://www.w3.org/2000/svg" desc="Created with imagetracer.js version 1.2.6" ><path fill="rgb(227,255,239)" stroke="rgb(227,255,239)" stroke-width="1" opacity="1" d="M 21.5 13 L 22 16.5 L 21 16.5 L 21.5 13 Z " /><path fill="rgb(227,255,239)" stroke="rgb(227,255,239)" stroke-width="1" opacity="1" d="M 18.5 15 L 19 21.5 L 18 21.5 L 18.5 15 Z " /><path fill="rgb(227,255,239)" stroke="rgb(227,255,239)" stroke-width="1" opacity="1" d="M 27.5 15 L 28 21.5 L 27 21.5 L 27.5 15 Z " /><path fill="rgb(227,255,239)" stroke="rgb(227,255,239)" stroke-width="1" opacity="1" d="M 21.5 19 L 22 21.5 L 21 21.5 L 21.5 19 Z " /><path fill="rgb(255,255,255)" stroke="rgb(255,255,255)" stroke-width="1" opacity="1" d="M 0 0 L 34 0 L 34 32 L 0 32 L 0 0 Z M 19 13 Q 20 16 17 15 L 16 21 L 15 21 Q 18 12 10 15 L 10 18 L 9 15 L 6 16 L 8 20 L 7 24 L 10 24 L 13 16 L 13 22 L 22 22 L 22 21 L 23 21 L 23 22 L 28 22 L 28 15 L 24 15 L 22 16 Q 23 11 19 13 Z M 26 13 L 26 14 L 28 14 L 26 13 Z " /><path fill="rgb(255,255,255)" stroke="rgb(255,255,255)" stroke-width="1" opacity="1" d="M 24.5 16 L 25 19.5 L 24 19.5 L 23 17.5 L 24.5 16 Z " /><path fill="rgb(124,195,237)" stroke="rgb(124,195,237)" stroke-width="1" opacity="1" d="M 14.5 15 L 15 20.5 L 14 20.5 L 14.5 15 Z " /><path fill="rgb(124,195,237)" stroke="rgb(124,195,237)" stroke-width="1" opacity="1" d="M 23.5 16 L 21.5 19 L 23.5 16 Z " /><path fill="rgb(114,56,98)" stroke="rgb(114,56,98)" stroke-width="1" opacity="1" d="M 20.5 13 L 21.5 17 L 24.5 15 L 24.5 16 L 22 17.5 L 22.5 19 L 21 18.5 L 20.5 22 L 20.5 13 Z " /><path fill="rgb(114,56,98)" stroke="rgb(114,56,98)" stroke-width="1" opacity="1" d="M 7.5 15 L 8 17.5 L 7 17.5 L 7.5 15 Z " /><path fill="rgb(114,56,98)" stroke="rgb(114,56,98)" stroke-width="1" opacity="1" d="M 13.5 15 L 14 21 L 16 21.5 L 14.5 22 Q 11.4 20.4 13.5 15 Z " /><path fill="rgb(114,56,98)" stroke="rgb(114,56,98)" stroke-width="1" opacity="1" d="M 17.5 15 L 18 21.5 L 17 21.5 L 17.5 15 Z " /><path fill="rgb(114,56,98)" stroke="rgb(114,56,98)" stroke-width="1" opacity="1" d="M 26.5 15 L 27 21.5 L 26 21.5 L 26.5 15 Z " /><path fill="rgb(114,56,98)" stroke="rgb(114,56,98)" stroke-width="1" opacity="1" d="M 10.5 17 L 11 18.5 L 9 24 L 7 23.5 Q 10.5 22 8 20.5 L 10.5 17 Z " /><path fill="rgb(114,56,98)" stroke="rgb(114,56,98)" stroke-width="1" opacity="1" d="M 23.5 20 L 24.5 22 L 23.5 20 Z " /><path fill="rgb(251,218,158)" stroke="rgb(251,218,158)" stroke-width="1" opacity="1" d="M 19.5 13 L 20 21.5 L 19 21.5 L 19.5 13 Z " /><path fill="rgb(251,218,158)" stroke="rgb(251,218,158)" stroke-width="1" opacity="1" d="M 25.5 15 L 26 21.5 L 25 21.5 L 25.5 15 Z " /></svg>