<?xml version="1.0" encoding="UTF-8"?>
<!DOCTYPE svg PUBLIC "-//W3C//DTD SVG 1.1//EN" "http://www.w3.org/Graphics/SVG/1.1/DTD/svg11.dtd">
<svg xmlns="http://www.w3.org/2000/svg" version="1.1" width="587px" height="587px" style="shape-rendering:geometricPrecision; text-rendering:geometricPrecision; image-rendering:optimizeQuality; fill-rule:evenodd; clip-rule:evenodd" xmlns:xlink="http://www.w3.org/1999/xlink">
<g><path style="opacity:1" fill="#000000" d="M 288.5,26.5 C 295.205,24.9843 300.371,26.9843 304,32.5C 304.667,52.5 304.667,72.5 304,92.5C 299.803,98.4709 294.303,99.9709 287.5,97C 285.622,95.4571 284.122,93.6238 283,91.5C 282.333,72.1667 282.333,52.8333 283,33.5C 283.967,30.3794 285.8,28.046 288.5,26.5 Z"/></g>
<g><path style="opacity:1" fill="#000000" d="M 197.5,67.5 C 200.941,67.3011 204.274,67.8011 207.5,69C 215.333,76.8333 223.167,84.6667 231,92.5C 235.415,102.27 232.415,108.27 222,110.5C 219.268,110.385 216.768,109.552 214.5,108C 207,100.5 199.5,93 192,85.5C 188.709,77.8182 190.542,71.8182 197.5,67.5 Z"/></g>
<g><path style="opacity:1" fill="#000000" d="M 381.5,67.5 C 395.102,66.9164 399.602,72.9164 395,85.5C 387.5,93 380,100.5 372.5,108C 365.294,111.82 359.461,110.32 355,103.5C 354.163,99.7054 354.496,96.0387 356,92.5C 364.395,83.937 372.895,75.6037 381.5,67.5 Z"/></g>
<g><path style="opacity:1" fill="#000000" d="M 550.5,380.5 C 544.772,380.112 541.105,377.112 539.5,371.5C 539.5,360.833 539.5,350.167 539.5,339.5C 496.428,339.167 454.094,339.5 412.5,340.5C 424.691,393.759 410.025,437.926 368.5,473C 317.897,507.31 267.564,506.977 217.5,472C 177.503,437.509 163.17,394.342 174.5,342.5C 175.404,341.791 175.737,340.791 175.5,339.5C 132.997,339.168 90.6634,339.501 48.5,340.5C 48.3333,394.168 48.5,447.834 49,501.5C 52.8388,520.341 64.0055,532.507 82.5,538C 221.465,539.658 360.465,539.992 499.5,539C 521.333,534.5 534.5,521.333 539,499.5C 539.333,485.167 539.667,470.833 540,456.5C 542.044,451.952 545.544,449.619 550.5,449.5C 554.025,449.346 556.859,450.679 559,453.5C 559.667,472.833 559.667,492.167 559,511.5C 551.167,535.333 535.333,551.167 511.5,559C 366.5,559.667 221.5,559.667 76.5,559C 49.1641,550.665 32.6641,532.498 27,504.5C 26.9432,417.972 26.9432,331.305 27,244.5C 34.2033,214.129 53.0367,195.796 83.5,189.5C 83.5496,162.783 96.883,150.116 123.5,151.5C 143.215,149.431 156.048,157.764 162,176.5C 162.499,180.486 162.666,184.486 162.5,188.5C 166.226,188.823 169.893,188.489 173.5,187.5C 176.843,175.128 180.343,162.794 184,150.5C 192.641,133.538 206.474,124.038 225.5,122C 274.167,121.333 322.833,121.333 371.5,122C 389.435,123.626 402.935,132.126 412,147.5C 416.775,160.824 420.941,174.324 424.5,188C 452.201,188.052 479.868,188.719 507.5,190C 533.971,196.314 551.138,212.48 559,238.5C 559.667,284.167 559.667,329.833 559,375.5C 557.046,378.564 554.213,380.23 550.5,380.5 Z"/></g>
<g><path style="opacity:1" fill="#eaeaf7" d="M 400.5,186.5 C 332.842,188.497 264.842,189.163 196.5,188.5C 198.559,177.492 201.725,166.825 206,156.5C 210.643,149.539 217.143,145.372 225.5,144C 275.871,143.023 326.204,143.356 376.5,145C 386.9,149.07 393.4,156.57 396,167.5C 397.661,173.811 399.161,180.144 400.5,186.5 Z"/></g>
<g><path style="opacity:1" fill="#7c95f8" d="M 140.5,188.5 C 129.167,188.5 117.833,188.5 106.5,188.5C 106.5,185.833 106.5,183.167 106.5,180.5C 106.84,177.325 108.507,175.159 111.5,174C 119.167,173.333 126.833,173.333 134.5,174C 139.947,177.269 141.947,182.102 140.5,188.5 Z"/></g>
<g><path style="opacity:1" fill="#5669af" d="M 106.5,180.5 C 106.5,183.167 106.5,185.833 106.5,188.5C 117.833,188.5 129.167,188.5 140.5,188.5C 129.012,189.495 117.345,189.828 105.5,189.5C 105.19,186.287 105.523,183.287 106.5,180.5 Z"/></g>
<g><path style="opacity:1" fill="#b4b4ba" d="M 400.5,186.5 C 401.404,187.209 401.737,188.209 401.5,189.5C 332.998,189.833 264.665,189.499 196.5,188.5C 264.842,189.163 332.842,188.497 400.5,186.5 Z"/></g>
<g><path style="opacity:1" fill="#f85656" d="M 327.5,267.5 C 319.989,265.198 312.323,263.531 304.5,262.5C 303.91,256.076 300.41,252.409 294,251.5C 287.192,252.139 283.692,255.806 283.5,262.5C 274.426,263.228 265.759,265.228 257.5,268.5C 255.052,264.432 251.385,262.099 246.5,261.5C 219.01,272.822 198.344,291.655 184.5,318C 139.168,318.5 93.8346,318.667 48.5,318.5C 48.0376,293.115 48.5376,267.782 50,242.5C 56.2914,225.21 68.4581,214.71 86.5,211C 224.167,210.333 361.833,210.333 499.5,211C 521.333,215.5 534.5,228.667 539,250.5C 539.5,273.164 539.667,295.831 539.5,318.5C 493.828,318.833 448.162,318.5 402.5,317.5C 387.93,290.093 366.097,271.093 337,260.5C 332.823,261.516 329.656,263.85 327.5,267.5 Z"/></g>
<g><path style="opacity:1" fill="#020000" d="M 115.5,233.5 C 142.498,231.999 155.332,244.666 154,271.5C 147.914,290.136 135.081,297.969 115.5,295C 100.633,290.294 92.6334,280.127 91.5,264.5C 92.817,248.864 100.817,238.531 115.5,233.5 Z"/></g>
<g><path style="opacity:1" fill="#060404" d="M 304.5,262.5 C 303.871,268.9 300.371,272.566 294,273.5C 287.547,272.549 284.047,268.882 283.5,262.5C 283.692,255.806 287.192,252.139 294,251.5C 300.41,252.409 303.91,256.076 304.5,262.5 Z"/></g>
<g><path style="opacity:1" fill="#f36730" d="M 119.5,254.5 C 131.824,254.489 135.657,260.156 131,271.5C 119.079,277.376 113.412,273.71 114,260.5C 115.36,257.977 117.193,255.977 119.5,254.5 Z"/></g>
<g><path style="opacity:1" fill="#050101" d="M 450.5,253.5 C 461.172,253.333 471.839,253.5 482.5,254C 490.345,257.197 492.512,262.697 489,270.5C 487.269,272.617 485.102,274.117 482.5,275C 471.833,275.667 461.167,275.667 450.5,275C 443.045,271.643 440.879,266.143 444,258.5C 445.965,256.45 448.132,254.783 450.5,253.5 Z"/></g>
<g><path style="opacity:1" fill="#74ccf7" d="M 283.5,262.5 C 284.047,268.882 287.547,272.549 294,273.5C 300.371,272.566 303.871,268.9 304.5,262.5C 312.323,263.531 319.989,265.198 327.5,267.5C 327.184,270.978 327.684,274.312 329,277.5C 339.254,283.041 349.088,289.208 358.5,296C 393.794,328.675 403.627,367.841 388,413.5C 366.351,458.417 330.518,479.25 280.5,476C 234.756,467.881 205.923,441.381 194,396.5C 187.042,357.708 197.875,324.875 226.5,298C 235.905,290.879 245.738,284.379 256,278.5C 257.316,275.312 257.816,271.978 257.5,268.5C 265.759,265.228 274.426,263.228 283.5,262.5 Z"/></g>
<g><path style="opacity:1" fill="#010102" d="M 304.5,306.5 C 303.919,310.92 301.586,314.086 297.5,316C 266.681,317.169 246.514,332.335 237,361.5C 232.221,390.436 242.388,412.269 267.5,427C 297.264,438.852 322.098,432.352 342,407.5C 348.769,395.762 352.436,383.096 353,369.5C 355.029,366.404 357.862,364.738 361.5,364.5C 367.362,364.189 371.196,366.856 373,372.5C 371.953,411.536 353.12,437.703 316.5,451C 274.742,460.199 243.242,446.365 222,409.5C 206.865,372.264 214.032,340.097 243.5,313C 259.081,300.918 276.748,295.251 296.5,296C 301.445,297.707 304.111,301.207 304.5,306.5 Z"/></g>
<g><path style="opacity:1" fill="#f7f7f7" d="M 304.5,306.5 C 336.322,313.322 355.322,332.655 361.5,364.5C 357.862,364.738 355.029,366.404 353,369.5C 352.436,383.096 348.769,395.762 342,407.5C 322.098,432.352 297.264,438.852 267.5,427C 242.388,412.269 232.221,390.436 237,361.5C 246.514,332.335 266.681,317.169 297.5,316C 301.586,314.086 303.919,310.92 304.5,306.5 Z"/></g>
<g><path style="opacity:1" fill="#8eb4ba" d="M 48.5,340.5 C 90.6634,339.501 132.997,339.168 175.5,339.5C 175.737,340.791 175.404,341.791 174.5,342.5C 132.847,340.505 90.8466,339.839 48.5,340.5 Z"/></g>
<g><path style="opacity:1" fill="#010101" d="M 285.5,339.5 C 308.242,337.11 322.742,346.776 329,368.5C 330.646,388.057 322.479,401.557 304.5,409C 283.596,413.299 268.763,405.799 260,386.5C 254.916,363.327 263.416,347.661 285.5,339.5 Z"/></g>
<g><path style="opacity:1" fill="#8fb4bb" d="M 539.5,371.5 C 538.506,361.347 538.172,351.014 538.5,340.5C 496.5,340.5 454.5,340.5 412.5,340.5C 454.094,339.5 496.428,339.167 539.5,339.5C 539.5,350.167 539.5,360.833 539.5,371.5 Z"/></g>
<g><path style="opacity:1" fill="#c7f2f9" d="M 48.5,340.5 C 90.8466,339.839 132.847,340.505 174.5,342.5C 163.17,394.342 177.503,437.509 217.5,472C 267.564,506.977 317.897,507.31 368.5,473C 410.025,437.926 424.691,393.759 412.5,340.5C 454.5,340.5 496.5,340.5 538.5,340.5C 538.172,351.014 538.506,361.347 539.5,371.5C 541.105,377.112 544.772,380.112 550.5,380.5C 550.5,388.5 550.5,396.5 550.5,404.5C 540.111,407.286 537.278,413.619 542,423.5C 544.564,425.624 547.397,426.958 550.5,427.5C 550.5,434.833 550.5,442.167 550.5,449.5C 545.544,449.619 542.044,451.952 540,456.5C 539.667,470.833 539.333,485.167 539,499.5C 534.5,521.333 521.333,534.5 499.5,539C 360.465,539.992 221.465,539.658 82.5,538C 64.0055,532.507 52.8388,520.341 49,501.5C 48.5,447.834 48.3333,394.168 48.5,340.5 Z"/></g>
<g><path style="opacity:1" fill="#73c9f4" d="M 289.5,360.5 C 304.395,360.886 309.895,368.219 306,382.5C 296.016,392.501 287.349,391.501 280,379.5C 278.399,370.701 281.566,364.368 289.5,360.5 Z"/></g>
<g><path style="opacity:1" fill="#010202" d="M 550.5,404.5 C 557.073,405.57 560.073,409.403 559.5,416C 560.421,422.912 557.421,426.745 550.5,427.5C 547.397,426.958 544.564,425.624 542,423.5C 537.278,413.619 540.111,407.286 550.5,404.5 Z"/></g>
</svg>
