<svg width="1957" height="2162" version="1.1" xmlns="http://www.w3.org/2000/svg" desc="Created with imagetracer.js version 1.2.6" ><path fill="rgb(0,0,0)" stroke="rgb(0,0,0)" stroke-width="1" opacity="0" d="M 0 0 L 1957 0 L 1957 2002 L 1933.5 2002 L 1932 2000.5 L 1932 1926.5 L 1930.5 1925 L 1855 1925 L 1855 1850.5 L 1854 1848 L 1778 1848 L 1778 1773.5 L 1775.5 1771 L 1701 1771 L 1701 1236.5 L 1698.5 1233 L 1624.5 1233 Q 1623.5 1233 1624 1228.5 L 1623 1227.5 L 1623 1214.5 L 1624 1213.5 L 1624 1110.5 L 1623 1109.5 L 1623 1081.5 L 1620.5 1079 L 1617.5 1078 Q 1616.2 1080.3 1611.5 1079 L 1610.5 1078 L 1600.5 1078 L 1595.5 1079 L 1593.5 1079 L 1584.5 1078 L 1583.5 1079 L 1564.5 1079 L 1563.5 1078 L 1548.5 1077 L 1546 1078 L 1546 927.5 L 1543.5 925 L 1539.5 924 L 1536.5 925 L 1532.5 924 Q 1531.3 926.3 1526.5 925 L 1524.5 925 L 1474.5 925 L 1473.5 924 L 1470.5 925 L 1467 923 L 1467 848.5 L 1465.5 847 L 1462.5 848 L 1403.5 848 Q 1401.8 845.2 1396.5 846 L 1393.5 848 L 1390 846 Q 1389.3 842.6 1392 841.5 L 1393 812.5 L 1392 811.5 L 1392 777.5 Q 1388.8 776 1390 771 L 1315 771 Q 1315.8 767.9 1313 768.5 L 1313 705 Q 1317 706.4 1315 699.5 Q 1312 698.3 1313 694 L 1161 694 L 1161 619 Q 1157.9 619.8 1158.5 617 L 1084 617 L 1084 542 Q 1080.9 542.8 1081.5 540 L 1007 540 L 1007 465.5 L 1003.5 463 L 1002.5 462 L 930 462 L 930 388.5 L 926.5 385 L 780.5 385 L 776 386 L 776 311.5 L 773.5 309 L 771.5 308 L 699 308 L 699 157.5 L 697.5 156 L 622 156 L 622 80.5 L 618.5 77 L 607.5 77 L 606.5 76 Q 605 78.5 599.5 77 L 597.5 77 L 544.5 77 L 544 74.5 L 545 73.5 L 545 6.5 L 544 1 L 462.5 1 L 462 4 L 460 4.5 L 460 27.5 L 461 29.5 L 460 32 Q 462.7 30.9 462 33.5 Q 459.5 35 461 40.5 L 462 42.5 L 460 47.5 L 460 49.5 L 461 52.5 L 460 54.5 L 461 56.5 L 460 57.5 L 460 68.5 L 462 73.5 L 461 75.5 L 462 79.5 Q 459.7 80.8 461 85.5 L 462 87.5 Q 458.9 92.9 460 102.5 L 461 104.5 L 460 106.5 L 461 108.5 L 460 110.5 L 461 113.5 Q 458.8 114.8 460 119.5 Q 463.5 121 461 122.5 L 460 126.5 L 460 128.5 L 461 131.5 Q 458.8 132.7 460 137.5 L 460 139.5 L 461 144.5 L 460 147.5 L 460 149.5 L 462 152.5 L 460 153 Q 463.7 156.4 462 166.5 L 460 173.5 L 462 175.5 L 460 177.5 L 461.5 180 Q 459.3 179.3 460 181.5 L 461.5 184 Q 459.3 183.3 460 185.5 Q 464 195 462 210.5 L 461 212.5 Q 463.2 213.8 462 218.5 L 460 225.5 L 462 227.5 L 462 308.5 L 458.5 310 L 456.5 310 L 447.5 310 L 446.5 309 Q 445 311.5 439.5 310 Q 438 307.5 432.5 309 L 430.5 310 L 429.5 309 L 418.5 308 L 413.5 309 L 412.5 308 L 388.5 308 L 383 311 L 383 428.5 L 384.5 429 L 384.5 430 L 383 430.5 L 383 462.5 L 381.5 462 L 314.5 462 L 308 463 Q 308.8 466.1 306 465.5 L 306 540 L 231.5 540 L 231 541.5 L 230 544.5 L 231 545.5 L 231 617 L 76.5 617 L 76 620.5 L 75 626 L 77 626.5 L 77 696.5 L 76 699 L 79.5 700 L 228.5 700 L 231 701 L 231 845.5 L 227.5 846 L 225.5 848 L 154.5 848 L 153 849.5 L 154 851.5 L 154 921.5 L 152 921.5 Q 152.6 924.3 146.5 923 L 144.5 925 L 91.5 925 L 86.5 923 L 84.5 925 L 76 925 L 77 928.5 L 77 1077.5 L 75 1077.5 Q 75.8 1079.8 73.5 1079 L 71.5 1079 L 11.5 1079 L 10.5 1078 L 9.5 1079 L 0 1079 L 0 0 Z " /><path fill="rgb(0,0,0)" stroke="rgb(0,0,0)" stroke-width="1" opacity="0" d="M 0.5 1081 L 75 1081.5 L 0.5 1082 L 0.5 1081 Z " /><path fill="rgb(0,0,0)" stroke="rgb(0,0,0)" stroke-width="1" opacity="0" d="M 1554.5 1081 L 1620.5 1081 L 1621 1082.5 L 1619.5 1082 L 1554.5 1082 L 1554.5 1081 Z " /><path fill="rgb(0,0,0)" stroke="rgb(0,0,0)" stroke-width="1" opacity="0" d="M 0 1547 L 73.5 1547 L 77 1549 L 77 1696.5 L 76 1698.5 L 77 1701 L 152 1701 Q 151.3 1704.1 154 1703.5 L 154 1773.5 L 153 1775.5 L 155.5 1778 L 229 1778 L 229.5 1782 L 231 1781.5 L 231 1849.5 L 230 1851.5 L 231 1854 L 233.5 1855 L 306 1855 L 306 1927.5 L 308 1931 L 311.5 1932 L 460 1932 Q 459 1936.3 462 1937.5 L 462 1999.5 Q 459.3 2000.3 460 2004.5 L 462 2008 L 465.5 2009 L 768 2009 L 768 2079 L 694.5 2079 L 693 2083 L 691 2083.5 L 691 2159.5 L 692.5 2162 L 0 2162 L 0 1547 Z " /><path fill="rgb(0,0,0)" stroke="rgb(0,0,0)" stroke-width="1" opacity="0" d="M 1468.5 1932 L 1539 1932 L 1539 2004.5 L 1542.5 2007 L 1546.5 2009 L 1616 2009 L 1616 2081.5 L 1617.5 2082 L 1620 2083 Q 1618.3 2087.1 1622.5 2086 L 1623.5 2087 L 1693.5 2087 L 1695 2088.5 L 1694 2092.5 L 1694 2156.5 L 1697 2161.5 L 1159 2162 Q 1158 2157.8 1161 2156.5 L 1161 2009 L 1463.5 2009 L 1467 2008 L 1467 1933.5 L 1468.5 1932 Z " /><path fill="rgb(0,0,0)" stroke="rgb(0,0,0)" stroke-width="1" opacity="0" d="M 853 2009 L 1075.5 2009 L 1076 2009.5 L 1076 2079 L 1003.5 2079 L 999 2083.5 L 999 2158.5 L 1001 2162 L 851 2161.5 L 853 2159.5 L 853 2009 Z " /><path fill="rgb(0,0,0)" stroke="rgb(0,0,0)" stroke-width="1" opacity="0" d="M 1620.5 2043 L 1621 2047.5 L 1620 2047.5 L 1620.5 2043 Z " /><path fill="rgb(0,0,0)" stroke="rgb(0,0,0)" stroke-width="1" opacity="0" d="M 1697.5 2086 L 1698 2095.5 L 1697 2095.5 L 1697.5 2086 Z " /><path fill="rgb(0,0,0)" stroke="rgb(0,0,0)" stroke-width="1" opacity="0" d="M 1932 2087 L 1957 2087 L 1957 2162 L 1932 2162 L 1932 2087 Z " /><path fill="rgb(0,0,0)" stroke="rgb(0,0,0)" stroke-width="1" opacity="0" d="M 1697.5 2097 L 1698 2152.5 L 1697 2152.5 L 1697.5 2097 Z " /><path fill="rgb(0,0,0)" stroke="rgb(0,0,0)" stroke-width="1" opacity="0" d="M 1697.5 2156 L 1698 2159 L 1700 2159.5 L 1697 2160 L 1697.5 2156 Z " /><path fill="rgb(0,0,0)" stroke="rgb(0,0,0)" stroke-width="1" opacity="0.9921568627450981" d="M 465 5 L 539 5 L 539 79.5 L 540 82 L 615.5 82 L 617 83.5 Q 614.3 85.3 616 91.5 L 617 92.5 L 617 124.5 L 616 129.5 L 617 131.5 L 616 133.5 L 617 134.5 L 617 154.5 L 617 156.5 L 617.5 159 L 692.5 159 L 694 160.5 L 694 313 L 769.5 313 L 771 314.5 L 771 388.5 L 772.5 390 L 923.5 390 L 925 391.5 L 925 465.5 L 926.5 467 L 1002 467 L 1002 542.5 L 1003.5 543 L 1004.5 544 L 1079 544 L 1079 618.5 L 1081.5 621 L 1156 621 L 1156 696 L 1082.5 696 L 1080 697 L 1080 773 L 1005 773 L 1005 698.5 L 1004 696 L 849.5 696 L 849 695.5 L 849 620 L 696.5 620 L 694 619 L 694 544.5 L 692.5 543 L 540.5 542 L 539 543.5 L 539 619.5 L 541 622.5 L 541 696 L 617 696 L 617 773.5 L 616 774.5 L 616 850 L 542 850 L 542 774.5 L 540.5 773 L 465 773 L 465 697.5 L 463.5 696 L 309.5 696 L 308 697.5 L 308 850 L 234.5 850 L 233 848.5 L 233 697.5 L 231.5 696 L 79 696 L 79 622.5 L 80.5 621 L 230.5 621 L 233 620 L 233 545.5 L 234.5 544 L 308.5 544 L 311 541.5 L 310 537.5 L 311 533.5 L 311 531.5 L 311 469.5 L 310 468.5 L 311.5 467 L 385.5 467 L 388 464.5 L 388 313 L 463.5 313 L 464 311.5 L 465 310.5 L 465 5 Z " /><path fill="rgb(0,0,0)" stroke="rgb(0,0,0)" stroke-width="1" opacity="0.9921568627450981" d="M 1159.5 698 L 1310 698 L 1310 773 L 1158 773 L 1158 699.5 L 1159.5 698 Z " /><path fill="rgb(0,0,0)" stroke="rgb(0,0,0)" stroke-width="1" opacity="0.9921568627450981" d="M 928 775 L 1001.5 775 L 1003 776.5 L 1003 850 L 928 850 L 928 775 Z " /><path fill="rgb(0,0,0)" stroke="rgb(0,0,0)" stroke-width="1" opacity="0.9921568627450981" d="M 1313 775 L 1386.5 775 L 1388 776.5 L 1388 845.5 L 1387 846.5 L 1387 848.5 L 1386.5 850 L 1313 850 L 1313 775 Z " /><path fill="rgb(0,0,0)" stroke="rgb(0,0,0)" stroke-width="1" opacity="0.9921568627450981" d="M 157 851 L 228.5 851 L 231 852 L 231 927 L 156 927 L 156 853.5 L 157 851 Z " /><path fill="rgb(0,0,0)" stroke="rgb(0,0,0)" stroke-width="1" opacity="0.9921568627450981" d="M 1391.5 851 L 1463.5 851 L 1464 852.5 L 1465 853.5 L 1465 927 L 1390 927 L 1390 852.5 L 1391.5 851 Z " /><path fill="rgb(0,0,0)" stroke="rgb(0,0,0)" stroke-width="1" opacity="0.9921568627450981" d="M 619 852 L 924.5 852 L 926 853.5 L 926 926.5 L 925.5 927 L 619 927 L 619 852 Z " /><path fill="rgb(0,0,0)" stroke="rgb(0,0,0)" stroke-width="1" opacity="0.9921568627450981" d="M 80.5 928 L 152.5 928 L 154 929.5 L 154 1080.5 L 152.5 1082 L 80.5 1082 L 79 1080.5 L 79 929.5 L 80.5 928 Z " /><path fill="rgb(0,0,0)" stroke="rgb(0,0,0)" stroke-width="1" opacity="0.9921568627450981" d="M 1467 928 L 1540.5 928 L 1542 929.5 L 1542 1081 L 1467 1081 L 1467 928 Z " /><path fill="rgb(0,0,0)" stroke="rgb(0,0,0)" stroke-width="1" opacity="0.9921568627450981" d="M 2 1082 L 76.5 1082 L 77 1082.5 L 77 1542 L 74.5 1543 L 3.5 1543 L 2 1541.5 L 2 1082 Z " /><path fill="rgb(0,0,0)" stroke="rgb(0,0,0)" stroke-width="1" opacity="0.9921568627450981" d="M 1544 1082 L 1619 1082 L 1619 1235 L 1544 1235 L 1544 1082 Z " /><path fill="rgb(0,0,0)" stroke="rgb(0,0,0)" stroke-width="1" opacity="0.9921568627450981" d="M 774.5 1159 L 848 1159 L 848 1235 L 773 1235 L 773 1160.5 L 774.5 1159 Z " /><path fill="rgb(0,0,0)" stroke="rgb(0,0,0)" stroke-width="1" opacity="0.9921568627450981" d="M 851.5 1236 L 923.5 1236 L 925 1237.5 L 926 1386.5 L 925 1389 L 851.5 1389 L 850 1387.5 L 850 1237.5 L 851.5 1236 Z " /><path fill="rgb(0,0,0)" stroke="rgb(0,0,0)" stroke-width="1" opacity="0.9921568627450981" d="M 1622.5 1236 L 1695.5 1236 L 1696 1236.5 L 1696 1774 L 1621.5 1774 L 1620 1775.5 L 1620 2003.5 L 1618.5 2004 L 1617.5 2005 L 1544 2005 L 1543 1992.5 L 1544 1990.5 L 1543 1987.5 L 1543 1985.5 L 1544 1981.5 L 1543 1977.5 L 1544 1975.5 L 1543 1973.5 L 1543 1971.5 L 1543 1960.5 L 1544 1958.5 L 1544 1956.5 L 1543 1954.5 L 1543 1941.5 L 1544 1938.5 L 1543 1933.5 L 1544 1928 L 1467.5 1928 L 1466 1926.5 L 1466 1852 L 1313.5 1852 L 1312 1850.5 L 1312 1776.5 L 1313.5 1775 L 1387.5 1775 L 1388.5 1776 L 1466.5 1776 L 1467.5 1775 L 1542.5 1775 L 1544 1773.5 L 1544 1698 L 1619.5 1698 L 1620 1697.5 L 1620 1468.5 L 1621 1467.5 L 1621 1237.5 L 1622.5 1236 Z " /><path fill="rgb(0,0,0)" stroke="rgb(0,0,0)" stroke-width="1" opacity="0.9921568627450981" d="M 928.5 1390 L 1000.5 1390 L 1003 1391 L 1003 1464.5 L 1001.5 1466 L 928.5 1466 L 927 1464.5 L 927 1391.5 L 928.5 1390 Z " /><path fill="rgb(0,0,0)" stroke="rgb(0,0,0)" stroke-width="1" opacity="0.9921568627450981" d="M 1005.5 1467 L 1077.5 1467 L 1080 1468 L 1080 1542 L 1004 1542 L 1004 1468.5 L 1005.5 1467 Z " /><path fill="rgb(0,0,0)" stroke="rgb(0,0,0)" stroke-width="1" opacity="0.9921568627450981" d="M 1082 1544 L 1154.5 1544 L 1157 1545 L 1157 1619 L 1082 1619 L 1082 1544 Z " /><path fill="rgb(0,0,0)" stroke="rgb(0,0,0)" stroke-width="1" opacity="0.9921568627450981" d="M 79 1545 L 154 1545 L 154 1696 L 143.5 1697 Q 142.2 1694.7 137.5 1696 L 134.5 1697 L 131.5 1696 L 129.5 1696 L 126.5 1697 L 124.5 1697 L 112.5 1696 L 110.5 1697 L 107.5 1696 L 106.5 1697 L 95.5 1697 L 93.5 1696 Q 91.8 1698.8 85.5 1697 L 82.5 1696 L 80.5 1696 L 79 1695.5 L 79 1545 Z " /><path fill="rgb(0,0,0)" stroke="rgb(0,0,0)" stroke-width="1" opacity="0.9921568627450981" d="M 1159 1621 L 1232.5 1621 L 1234 1622.5 L 1234 1696 L 1159 1696 L 1159 1621 Z " /><path fill="rgb(0,0,0)" stroke="rgb(0,0,0)" stroke-width="1" opacity="0.9921568627450981" d="M 1236 1698 L 1309.5 1698 L 1311 1699.5 L 1311 1773.5 L 1309.5 1775 L 1236 1775 L 1236 1698 Z " /><path fill="rgb(0,0,0)" stroke="rgb(0,0,0)" stroke-width="1" opacity="0.9921568627450981" d="M 156 1699 L 231 1699 L 231 1773 L 224.5 1774 L 161.5 1774 L 156 1773 L 156 1699 Z " /><path fill="rgb(0,0,0)" stroke="rgb(0,0,0)" stroke-width="1" opacity="0.9921568627450981" d="M 234.5 1776 L 308 1776 L 308 1850 L 278.5 1851 L 276.5 1850 L 275.5 1851 L 234.5 1851 L 233 1849.5 L 233 1777.5 L 234.5 1776 Z " /><path fill="rgb(0,0,0)" stroke="rgb(0,0,0)" stroke-width="1" opacity="0.9921568627450981" d="M 1698 1776 L 1774 1776 L 1774 1849.5 L 1772.5 1851 L 1698 1851 L 1698 1776 Z " /><path fill="rgb(0,0,0)" stroke="rgb(0,0,0)" stroke-width="1" opacity="0.9921568627450981" d="M 311 1853 L 462 1853 L 462 1927 L 458.5 1928 L 311.5 1928 L 310 1925.5 Q 312.3 1924.2 311 1919.5 L 311 1917.5 L 310 1911.5 L 310 1903.5 Q 308.5 1896 311 1892.5 L 310 1887.5 L 311 1885.5 L 310 1882.5 L 311 1880.5 L 310 1879.5 L 310 1870.5 L 311 1867.5 L 311 1853 Z " /><path fill="rgb(0,0,0)" stroke="rgb(0,0,0)" stroke-width="1" opacity="0.9921568627450981" d="M 1775 1853 L 1851 1853 L 1851 1926.5 L 1849.5 1928 L 1775 1928 L 1775 1853 Z " /><path fill="rgb(0,0,0)" stroke="rgb(0,0,0)" stroke-width="1" opacity="0.9921568627450981" d="M 1235.5 1929 L 1463.5 1929 L 1465 1930.5 L 1465 2003.5 L 1463.5 2005 L 1160.5 2005 L 1159 2003.5 L 1159 1930 L 1234.5 1930 L 1235.5 1929 Z " /><path fill="rgb(0,0,0)" stroke="rgb(0,0,0)" stroke-width="1" opacity="0.9921568627450981" d="M 465 1930 L 769.5 1930 L 771 1931.5 L 771 2003.5 L 768.5 2004 L 767.5 2005 L 465 2005 L 465 1930 Z " /><path fill="rgb(0,0,0)" stroke="rgb(0,0,0)" stroke-width="1" opacity="0.9921568627450981" d="M 850 1930 L 1078.5 1930 L 1079 1930.5 L 1079 2004 L 1075.5 2005 L 851.5 2005 L 850 2003.5 L 850 1930 Z " /><path fill="rgb(0,0,0)" stroke="rgb(0,0,0)" stroke-width="1" opacity="0.9921568627450981" d="M 1852 1930 L 1928 1930 L 1928 2003.5 L 1926.5 2005 L 1852 2005 L 1852 1930 Z " /><path fill="rgb(0,0,0)" stroke="rgb(0,0,0)" stroke-width="1" opacity="0.9921568627450981" d="M 773 2007 L 848 2007 L 848 2157.5 L 846.5 2159 L 696 2159 L 696 2084 L 771.5 2084 L 773 2082.5 L 773 2007 Z " /><path fill="rgb(0,0,0)" stroke="rgb(0,0,0)" stroke-width="1" opacity="0.9921568627450981" d="M 1082 2007 L 1156 2007 L 1156 2159 L 1004 2159 L 1004 2084 L 1079.5 2084 L 1081 2082.5 L 1081 2009.5 L 1082 2007 Z " /><path fill="rgb(0,0,0)" stroke="rgb(0,0,0)" stroke-width="1" opacity="0.9921568627450981" d="M 1621 2007 L 1697 2007 L 1697 2081 L 1694.5 2082 L 1621 2082 L 1621 2007 Z " /><path fill="rgb(0,0,0)" stroke="rgb(0,0,0)" stroke-width="1" opacity="0.9921568627450981" d="M 1929 2007 L 1957 2007 L 1957 2082 L 1930.5 2082 L 1929 2080.5 L 1929 2007 Z " /><path fill="rgb(0,0,0)" stroke="rgb(0,0,0)" stroke-width="1" opacity="0.9921568627450981" d="M 1851.5 2083 L 1926.5 2083 L 1928 2084.5 L 1928 2157.5 L 1926.5 2159 L 1698.5 2159 L 1698 2158.5 L 1698 2084 L 1850.5 2084 L 1851.5 2083 Z " /><path fill="rgb(240,236,233)" stroke="rgb(240,236,233)" stroke-width="1" opacity="0.9764705882352941" d="M 462 1 L 543.5 1 Q 544.5 1 544 5.5 L 545 6.5 L 545 73.5 L 544 77 L 597.5 77 L 598.5 76 Q 600 78.5 605.5 77 L 607.5 77 L 618.5 77 L 622 80.5 L 622 155.5 L 619 156 L 619 81 Q 615.9 81.8 616.5 79 L 542 79 L 542 4.5 Q 539.3 5.1 540 2 L 464 2 L 463.5 4 L 462 1 Z " /><path fill="rgb(240,236,233)" stroke="rgb(240,236,233)" stroke-width="1" opacity="0.9764705882352941" d="M 460 4 L 462 4.5 L 462 32 Q 459.3 33.1 460 30.5 L 461 28.5 L 460 27.5 L 460 4 Z " /><path fill="rgb(240,236,233)" stroke="rgb(240,236,233)" stroke-width="1" opacity="0.9764705882352941" d="M 461.5 34 L 462 40.5 L 461 40.5 L 461.5 34 Z " /><path fill="rgb(240,236,233)" stroke="rgb(240,236,233)" stroke-width="1" opacity="0.9764705882352941" d="M 461.5 43 L 462 71.5 L 461 71.5 Q 458.6 66.4 460 57.5 L 461 55.5 L 460 53.5 L 461 51.5 L 460 49.5 L 460 47.5 L 461.5 43 Z " /><path fill="rgb(240,236,233)" stroke="rgb(240,236,233)" stroke-width="1" opacity="0.9764705882352941" d="M 461.5 80 L 462 85.5 L 461 85.5 L 461.5 80 Z " /><path fill="rgb(240,236,233)" stroke="rgb(240,236,233)" stroke-width="1" opacity="0.9764705882352941" d="M 461.5 88 L 462 120.5 L 460 119.5 L 461 111.5 L 460 109.5 L 461 107.5 L 460 105.5 L 461 103.5 L 460 102.5 L 460 93.5 L 461.5 88 Z " /><path fill="rgb(240,236,233)" stroke="rgb(240,236,233)" stroke-width="1" opacity="0.9764705882352941" d="M 461.5 122 L 462 151.5 L 460 150.5 L 461 148.5 L 460 145.5 L 460 143.5 L 461 138.5 Q 458.8 137.2 460 132.5 L 461 130.5 L 460 128.5 L 460 126.5 L 461.5 122 Z " /><path fill="rgb(240,236,233)" stroke="rgb(240,236,233)" stroke-width="1" opacity="0.9764705882352941" d="M 460 153 Q 463 151.8 462 155.5 L 460 154.5 L 460 153 Z " /><path fill="rgb(240,236,233)" stroke="rgb(240,236,233)" stroke-width="1" opacity="0.9764705882352941" d="M 695 156 L 699 157.5 L 699 308 L 771.5 308 L 776 311.5 L 776 385.5 L 779.5 386 L 780.5 385 L 926.5 385 L 930 388.5 L 930 462 L 1002.5 462 L 1005 463 Q 1004.3 466.1 1007 465.5 L 1007 540 L 1082 540 Q 1081.3 543.1 1084 542.5 L 1084 617 L 1158.5 617 Q 1157.9 619.8 1161 619 L 1161 694 L 1312.5 694 L 1313 696 L 1159 696 L 1159 619 L 1082 619 L 1082 542 L 1005 542 L 1005 465 L 928 465 L 928 389.5 L 926.5 388 L 917.5 387 L 915.5 387 L 912.5 388 Q 911.3 385.7 906.5 387 L 904.5 387 Q 898.3 385.3 896.5 388 Q 895 385.5 889.5 387 L 886.5 388 L 885.5 387 L 862.5 387 L 860.5 387 Q 855.8 385.7 854.5 388 L 853.5 387 L 774 387 L 774 320.5 L 773 319.5 L 773 311 L 770.5 310 L 698.5 310 Q 697.3 312.3 696 309.5 L 697 306.5 L 696 305.5 L 696 158.5 L 695 156 Z " /><path fill="rgb(240,236,233)" stroke="rgb(240,236,233)" stroke-width="1" opacity="0.9764705882352941" d="M 461.5 167 L 462 174.5 L 460 173.5 L 461.5 167 Z " /><path fill="rgb(240,236,233)" stroke="rgb(240,236,233)" stroke-width="1" opacity="0.9764705882352941" d="M 461.5 176 L 462 178.5 L 460 177.5 L 461.5 176 Z " /><path fill="rgb(240,236,233)" stroke="rgb(240,236,233)" stroke-width="1" opacity="0.9764705882352941" d="M 460 180 Q 463 178.8 462 182.5 L 460 181.5 L 460 180 Z " /><path fill="rgb(240,236,233)" stroke="rgb(240,236,233)" stroke-width="1" opacity="0.9764705882352941" d="M 460 184 L 462 184.5 L 462 191.5 L 461 191.5 Q 461.6 186.1 460 184 Z " /><path fill="rgb(240,236,233)" stroke="rgb(240,236,233)" stroke-width="1" opacity="0.9764705882352941" d="M 461.5 219 L 462 226.5 L 460 225.5 L 461.5 219 Z " /><path fill="rgb(240,236,233)" stroke="rgb(240,236,233)" stroke-width="1" opacity="0.9764705882352941" d="M 388.5 308 L 412.5 308 L 417.5 309 L 420.5 308 L 421.5 309 L 430 309.5 L 387.5 310 L 388.5 308 Z " /><path fill="rgb(240,236,233)" stroke="rgb(240,236,233)" stroke-width="1" opacity="0.9764705882352941" d="M 432.5 309 L 439 309.5 L 432.5 310 L 432.5 309 Z " /><path fill="rgb(240,236,233)" stroke="rgb(240,236,233)" stroke-width="1" opacity="0.9764705882352941" d="M 383 311 L 385 311.5 L 385 429 L 383 428.5 L 383 311 Z " /><path fill="rgb(240,236,233)" stroke="rgb(240,236,233)" stroke-width="1" opacity="0.9764705882352941" d="M 383 430 L 385 430.5 L 385 465 L 308 465 L 308 542 L 231.5 542 L 230 542.5 L 231 540 L 306 540 L 306 465.5 Q 308.8 466.1 308 463 L 313.5 463 L 314.5 462 L 381.5 462 L 383 462.5 L 383 430 Z " /><path fill="rgb(240,236,233)" stroke="rgb(240,236,233)" stroke-width="1" opacity="0.9764705882352941" d="M 542 544 L 615.5 544 L 617 545.5 L 617 619 L 542 619 L 542 544 Z " /><path fill="rgb(240,236,233)" stroke="rgb(240,236,233)" stroke-width="1" opacity="0.9764705882352941" d="M 76 617 L 230.5 617 L 231 619 L 76.5 619 L 76 617 Z " /><path fill="rgb(240,236,233)" stroke="rgb(240,236,233)" stroke-width="1" opacity="0.9764705882352941" d="M 75.5 621 L 76 625.5 L 75 625.5 L 75.5 621 Z " /><path fill="rgb(240,236,233)" stroke="rgb(240,236,233)" stroke-width="1" opacity="0.9764705882352941" d="M 76 697 L 230.5 697 L 231 701 L 228.5 700 L 79.5 700 L 76 699 L 76 697 Z " /><path fill="rgb(240,236,233)" stroke="rgb(240,236,233)" stroke-width="1" opacity="0.9764705882352941" d="M 311.5 697 L 461.5 697 L 462 698.5 L 463 699.5 L 463 767.5 L 462 770.5 L 463 774 L 538.5 774 L 539 775.5 L 540 776.5 L 540 851 L 615.5 851 L 617 852.5 L 617 1003.5 L 615.5 1005 L 541.5 1005 L 540 1006.5 L 540 1080.5 L 538.5 1082 L 463 1082 L 463 1234.5 L 464.5 1236 L 539.5 1236 L 541 1237.5 L 541 1311.5 L 542.5 1313 L 618 1313 L 618 1387.5 L 619 1390 L 771.5 1390 L 773 1391.5 L 773 1465.5 L 774.5 1467 L 924.5 1467 L 927 1468 L 927 1542.5 L 928.5 1544 L 1079 1545 L 1079 1619.5 L 1081.5 1622 L 1156 1622 L 1156 1696.5 L 1158.5 1699 L 1233 1699 L 1233 1926.5 L 1232.5 1927 L 1158.5 1927 L 1156 1929.5 L 1156 2004 L 1082 2004 L 1082 1929.5 L 1079.5 1927 L 849.5 1927 L 847 1930.5 L 847 2004 L 773 2004 L 773 1928.5 L 771.5 1927 L 465 1927 L 465 1852.5 L 462.5 1850 L 311 1850 L 311 1776.5 L 307.5 1773 L 234 1773 L 234 1699.5 L 230.5 1696 L 157 1696 L 157 1622.5 L 156 1621.5 L 156 1544.5 L 154.5 1543 L 80.5 1543 L 79 1541.5 L 79 1237.5 L 80.5 1236 L 155 1236 L 155 1082.5 L 156 1081.5 L 156 928 L 231.5 928 L 233 926.5 L 233 852.5 L 234.5 851 L 308.5 851 L 310 849.5 L 310 698.5 L 311.5 697 Z " /><path fill="rgb(240,236,233)" stroke="rgb(240,236,233)" stroke-width="1" opacity="0.9764705882352941" d="M 850 697 L 1002 697 L 1002 773 L 927.5 773 L 925 774 L 925 849.5 L 924.5 850 L 619 850 L 619 774.5 L 619.5 774 L 848.5 774 L 850 772.5 L 850 697 Z " /><path fill="rgb(240,236,233)" stroke="rgb(240,236,233)" stroke-width="1" opacity="0.9764705882352941" d="M 1313.5 698 Q 1316.5 699.6 1315 705 L 1313 704.5 L 1313.5 698 Z " /><path fill="rgb(240,236,233)" stroke="rgb(240,236,233)" stroke-width="1" opacity="0.9764705882352941" d="M 1313 769 Q 1316.1 768.3 1315.5 771 L 1389.5 771 L 1390 773 L 1313.5 773 L 1313 769 Z " /><path fill="rgb(240,236,233)" stroke="rgb(240,236,233)" stroke-width="1" opacity="0.9764705882352941" d="M 1390.5 776 L 1392 777.5 L 1392 811.5 L 1393 812.5 L 1393 821.5 L 1392 822.5 L 1392 841.5 L 1390.5 843 L 1390.5 776 Z " /><path fill="rgb(240,236,233)" stroke="rgb(240,236,233)" stroke-width="1" opacity="0.9764705882352941" d="M 227.5 846 Q 233.2 844.4 231 850 L 153 849.5 L 154.5 848 L 225.5 848 L 227.5 846 Z " /><path fill="rgb(240,236,233)" stroke="rgb(240,236,233)" stroke-width="1" opacity="0.9764705882352941" d="M 1390 846 L 1394.5 848 Q 1395.5 845 1400.5 846 L 1403.5 848 L 1462.5 848 L 1465.5 847 L 1467 850 L 1390.5 850 L 1390 846 Z " /><path fill="rgb(240,236,233)" stroke="rgb(240,236,233)" stroke-width="1" opacity="0.9764705882352941" d="M 152.5 921 L 154 927 L 76.5 927 L 76 925 Q 84.2 926.8 87.5 923 L 91.5 925 L 144.5 925 Q 146.2 921.5 152 923 L 152.5 921 Z " /><path fill="rgb(240,236,233)" stroke="rgb(240,236,233)" stroke-width="1" opacity="0.9764705882352941" d="M 1467 923 L 1472.5 925 L 1474.5 925 L 1524.5 925 L 1525.5 924 Q 1526.7 926.3 1531.5 925 L 1535.5 924 L 1538.5 925 L 1541.5 924 L 1546 927.5 L 1546 1077.5 L 1547.5 1078 L 1552.5 1077 L 1553.5 1078 L 1563.5 1078 L 1564.5 1079 L 1583.5 1079 L 1587.5 1078 Q 1588.8 1080.3 1593.5 1079 L 1595.5 1079 L 1610.5 1078 Q 1611.7 1080.3 1616.5 1079 L 1618.5 1078 L 1623 1081.5 L 1623 1109.5 L 1624 1110.5 L 1624 1213.5 L 1623 1214.5 L 1623 1227.5 L 1624 1233 L 1698.5 1233 L 1700 1234.5 L 1701 1236.5 L 1701 1771 L 1775.5 1771 L 1778 1773.5 L 1778 1848 L 1853.5 1848 L 1854 1849.5 L 1855 1850.5 L 1855 1925 L 1930.5 1925 L 1932 1926.5 L 1932 2000.5 L 1933.5 2002 L 1956.5 2002 L 1957 2004 L 1930 2004 L 1930 1929.5 L 1929 1927 L 1853 1927 L 1853 1852.5 L 1852 1850 L 1776 1850 L 1776 1775.5 L 1775 1773 L 1698 1772.5 L 1699 1771.5 L 1699 1236.5 L 1697.5 1235 L 1621 1234.5 L 1622 1233.5 L 1622 1081 L 1544.5 1081 L 1544 1078.5 L 1545 1077.5 L 1545 931.5 L 1545 929.5 L 1543.5 927 L 1467.5 927 L 1467 923 Z " /><path fill="rgb(240,236,233)" stroke="rgb(240,236,233)" stroke-width="1" opacity="0.9764705882352941" d="M 75.5 1077 L 76 1081 L 0.5 1081 L 0 1079 L 9.5 1079 L 10.5 1078 L 11.5 1079 L 71.5 1079 L 73.5 1079 Q 76 1079.7 75.5 1077 Z " /><path fill="rgb(240,236,233)" stroke="rgb(240,236,233)" stroke-width="1" opacity="0.9764705882352941" d="M 0 1545 L 76.5 1545 L 77 1546.5 L 75.5 1549 L 73.5 1547 L 0 1547 L 0 1545 Z " /><path fill="rgb(240,236,233)" stroke="rgb(240,236,233)" stroke-width="1" opacity="0.9764705882352941" d="M 77 1699 L 153.5 1699 L 154 1701.5 L 152 1702.5 L 151.5 1701 L 77.5 1701 L 77 1699 Z " /><path fill="rgb(240,236,233)" stroke="rgb(240,236,233)" stroke-width="1" opacity="0.9764705882352941" d="M 155 1776 L 161.5 1776 L 162.5 1777 L 179.5 1777 L 184.5 1776 L 185.5 1777 L 214.5 1777 L 216.5 1777 Q 225.8 1777.8 231 1776 L 229.5 1782 L 229 1778 L 155.5 1778 L 155 1776 Z " /><path fill="rgb(240,236,233)" stroke="rgb(240,236,233)" stroke-width="1" opacity="0.9764705882352941" d="M 232.5 1853 L 233.5 1854 L 305.5 1854 L 308 1853 L 307.5 1929 L 306 1927.5 L 306 1855 L 233.5 1855 L 232.5 1853 Z " /><path fill="rgb(240,236,233)" stroke="rgb(240,236,233)" stroke-width="1" opacity="0.9764705882352941" d="M 460.5 1930 Q 463.5 1929.5 462 1936.5 L 460 1935.5 L 459.5 1932 L 311.5 1932 L 311.5 1931 L 459.5 1931 L 460.5 1930 Z " /><path fill="rgb(240,236,233)" stroke="rgb(240,236,233)" stroke-width="1" opacity="0.9764705882352941" d="M 1467 1931 L 1543 1931 L 1543 2007 L 1541 2007 Q 1541.8 2003.9 1539 2004.5 L 1539 1932 L 1468.5 1932 L 1467 1932.5 L 1467 1931 Z " /><path fill="rgb(240,236,233)" stroke="rgb(240,236,233)" stroke-width="1" opacity="0.9764705882352941" d="M 461.5 2000 L 462 2005.5 L 460 2004.5 Q 459.3 2000.8 461.5 2000 Z " /><path fill="rgb(240,236,233)" stroke="rgb(240,236,233)" stroke-width="1" opacity="0.9764705882352941" d="M 768.5 2007 L 770 2007.5 L 770 2081 L 695.5 2081 L 693 2082 L 694.5 2079 L 768 2079 L 768 2009 L 465 2008.5 L 767.5 2008 L 768.5 2007 Z " /><path fill="rgb(240,236,233)" stroke="rgb(240,236,233)" stroke-width="1" opacity="0.9764705882352941" d="M 851.5 2007 L 852.5 2008 L 1076.5 2008 L 1079 2007 L 1079 2081 L 1003.5 2081 L 1001 2085.5 L 1002 2086.5 L 1002 2160 L 1005 2161.5 L 1003.5 2162 L 1001 2161.5 L 1001.5 2160 L 999 2158.5 L 999 2083.5 L 1003.5 2079 L 1076 2079 L 1076 2009 L 853 2009 L 853 2159.5 Q 851.3 2162.8 845.5 2162 L 845.5 2161 L 851 2160 L 851 2009.5 L 850 2008.5 L 851.5 2007 Z " /><path fill="rgb(240,236,233)" stroke="rgb(240,236,233)" stroke-width="1" opacity="0.9764705882352941" d="M 1159 2007 L 1161.5 2008 L 1464 2008.5 L 1161 2009 L 1161 2156.5 L 1159.5 2158 L 1159 2007 Z " /><path fill="rgb(240,236,233)" stroke="rgb(240,236,233)" stroke-width="1" opacity="0.9764705882352941" d="M 1546.5 2008 L 1620 2008 L 1620 2081.5 Q 1618.8 2084.3 1617.5 2082 L 1616 2081.5 L 1616 2009 L 1546.5 2009 L 1546.5 2008 Z " /><path fill="rgb(240,236,233)" stroke="rgb(240,236,233)" stroke-width="1" opacity="0.9764705882352941" d="M 691 2083 L 693 2083.5 L 693 2159.5 L 694.5 2160 L 698 2161.5 L 693.5 2162 L 691 2159.5 L 691 2083 Z " /><path fill="rgb(240,236,233)" stroke="rgb(240,236,233)" stroke-width="1" opacity="0.9764705882352941" d="M 1930 2084 L 1932.5 2085 L 1957 2085 L 1956.5 2087 L 1932 2087 L 1932 2161.5 Q 1931.8 2162.8 1925.5 2162 L 1925.5 2161 Q 1929.3 2161.8 1930 2159.5 L 1930 2084 Z " /><path fill="rgb(240,236,233)" stroke="rgb(240,236,233)" stroke-width="1" opacity="0.9764705882352941" d="M 1620.5 2085 L 1697 2085 L 1697 2160.5 L 1695 2159.5 L 1694 2156.5 L 1694 2092.5 L 1695 2088.5 L 1693.5 2087 L 1623.5 2087 L 1620.5 2086 L 1620.5 2085 Z " /><path fill="rgb(240,236,233)" stroke="rgb(240,236,233)" stroke-width="1" opacity="0.9764705882352941" d="M 1157.5 2160 L 1158.5 2162 L 1155 2161.5 L 1157.5 2160 Z " /><path fill="rgb(240,236,233)" stroke="rgb(240,236,233)" stroke-width="1" opacity="0.9764705882352941" d="M 724.5 2161 L 727 2161.5 L 724.5 2162 L 724.5 2161 Z " /><path fill="rgb(240,236,233)" stroke="rgb(240,236,233)" stroke-width="1" opacity="0.9764705882352941" d="M 830.5 2161 L 836 2161.5 L 830.5 2162 L 830.5 2161 Z " /><path fill="rgb(240,236,233)" stroke="rgb(240,236,233)" stroke-width="1" opacity="0.9764705882352941" d="M 1011.5 2161 L 1014 2161.5 L 1011.5 2162 L 1011.5 2161 Z " /><path fill="rgb(240,236,233)" stroke="rgb(240,236,233)" stroke-width="1" opacity="0.9764705882352941" d="M 1017.5 2161 L 1020 2161.5 L 1017.5 2162 L 1017.5 2161 Z " /><path fill="rgb(240,236,233)" stroke="rgb(240,236,233)" stroke-width="1" opacity="0.9764705882352941" d="M 1707.5 2161 L 1711 2161.5 L 1707.5 2162 L 1707.5 2161 Z " /><path fill="rgb(240,236,233)" stroke="rgb(240,236,233)" stroke-width="1" opacity="0.9764705882352941" d="M 1726.5 2161 L 1729 2161.5 L 1726.5 2162 L 1726.5 2161 Z " /><path fill="rgb(240,236,233)" stroke="rgb(240,236,233)" stroke-width="1" opacity="0.9764705882352941" d="M 1730.5 2161 L 1734 2161.5 L 1730.5 2162 L 1730.5 2161 Z " /><path fill="rgb(240,236,233)" stroke="rgb(240,236,233)" stroke-width="1" opacity="0.9764705882352941" d="M 1750.5 2161 L 1753 2161.5 L 1750.5 2162 L 1750.5 2161 Z " /><path fill="rgb(240,236,233)" stroke="rgb(240,236,233)" stroke-width="1" opacity="0.9764705882352941" d="M 1757.5 2161 L 1760 2161.5 L 1757.5 2162 L 1757.5 2161 Z " /><path fill="rgb(240,236,233)" stroke="rgb(240,236,233)" stroke-width="1" opacity="0.9764705882352941" d="M 1777.5 2161 L 1781 2161.5 L 1777.5 2162 L 1777.5 2161 Z " /><path fill="rgb(240,236,233)" stroke="rgb(240,236,233)" stroke-width="1" opacity="0.9764705882352941" d="M 1788.5 2161 L 1793 2161.5 L 1788.5 2162 L 1788.5 2161 Z " /><path fill="rgb(240,236,233)" stroke="rgb(240,236,233)" stroke-width="1" opacity="0.9764705882352941" d="M 1808.5 2161 L 1813 2161.5 L 1808.5 2162 L 1808.5 2161 Z " /><path fill="rgb(240,236,233)" stroke="rgb(240,236,233)" stroke-width="1" opacity="0.9764705882352941" d="M 1817.5 2161 L 1822 2161.5 L 1817.5 2162 L 1817.5 2161 Z " /><path fill="rgb(240,236,233)" stroke="rgb(240,236,233)" stroke-width="1" opacity="0.9764705882352941" d="M 1834.5 2161 L 1837 2161.5 L 1834.5 2162 L 1834.5 2161 Z " /><path fill="rgb(240,236,233)" stroke="rgb(240,236,233)" stroke-width="1" opacity="0.9764705882352941" d="M 1869.5 2161 L 1872 2161.5 L 1869.5 2162 L 1869.5 2161 Z " /><path fill="rgb(240,236,233)" stroke="rgb(240,236,233)" stroke-width="1" opacity="0.9764705882352941" d="M 1876.5 2161 L 1881 2161.5 L 1876.5 2162 L 1876.5 2161 Z " /><path fill="rgb(167,142,117)" stroke="rgb(167,142,117)" stroke-width="1" opacity="0.9803921568627451" d="M 464 2 L 540 2 Q 539.3 5.1 542 4.5 L 542 79 L 617 79 Q 616.3 82.1 619 81.5 L 619 156 L 694.5 156 L 695 157.5 L 696 158.5 L 696 305.5 L 697 306.5 L 696 309.5 Q 697.3 312.3 698.5 310 L 770.5 310 L 773 311 L 773 319.5 L 774 320.5 L 774 387 L 854 387.5 L 772 388 L 772 313.5 L 769.5 311 L 698.5 311 L 697.5 312 L 695 311 L 695 159.5 L 693.5 158 L 619.5 158 L 618 156.5 L 618 83.5 L 617 81 L 542.5 81 L 540 78.5 L 540 4 L 464.5 4 L 463 5.5 L 462.5 13 L 462 3.5 L 464 3.5 L 464 2 Z " /><path fill="rgb(167,142,117)" stroke="rgb(167,142,117)" stroke-width="1" opacity="0.9803921568627451" d="M 385 310 L 430 310.5 L 388.5 311 L 386 313.5 L 385.5 320 L 385 310 Z " /><path fill="rgb(167,142,117)" stroke="rgb(167,142,117)" stroke-width="1" opacity="0.9803921568627451" d="M 433.5 310 L 437 310.5 L 433.5 311 L 433.5 310 Z " /><path fill="rgb(167,142,117)" stroke="rgb(167,142,117)" stroke-width="1" opacity="0.9803921568627451" d="M 855.5 387 L 861 387.5 L 855.5 388 L 855.5 387 Z " /><path fill="rgb(167,142,117)" stroke="rgb(167,142,117)" stroke-width="1" opacity="0.9803921568627451" d="M 862.5 387 L 886 387.5 L 862.5 388 L 862.5 387 Z " /><path fill="rgb(167,142,117)" stroke="rgb(167,142,117)" stroke-width="1" opacity="0.9803921568627451" d="M 889.5 387 L 896 387.5 L 889.5 388 L 889.5 387 Z " /><path fill="rgb(167,142,117)" stroke="rgb(167,142,117)" stroke-width="1" opacity="0.9803921568627451" d="M 897.5 387 L 905 387.5 L 897.5 388 L 897.5 387 Z " /><path fill="rgb(167,142,117)" stroke="rgb(167,142,117)" stroke-width="1" opacity="0.9803921568627451" d="M 906.5 387 L 912 387.5 L 906.5 388 L 906.5 387 Z " /><path fill="rgb(167,142,117)" stroke="rgb(167,142,117)" stroke-width="1" opacity="0.9803921568627451" d="M 913.5 387 L 916 387.5 L 913.5 388 L 913.5 387 Z " /><path fill="rgb(167,142,117)" stroke="rgb(167,142,117)" stroke-width="1" opacity="0.9803921568627451" d="M 924.5 388 L 928 389.5 L 928 464.5 L 926 465 L 926 390.5 L 924.5 388 Z " /><path fill="rgb(167,142,117)" stroke="rgb(167,142,117)" stroke-width="1" opacity="0.9803921568627451" d="M 308 465 Q 310.7 463.9 310 466.5 L 308 467.5 L 308 465 Z " /><path fill="rgb(167,142,117)" stroke="rgb(167,142,117)" stroke-width="1" opacity="0.9803921568627451" d="M 1002.5 465 L 1005 465.5 L 1005 541.5 L 1004 541.5 L 1004 468.5 L 1002.5 465 Z " /><path fill="rgb(167,142,117)" stroke="rgb(167,142,117)" stroke-width="1" opacity="0.9803921568627451" d="M 231.5 542 L 234 542.5 L 230.5 545 L 230 543.5 L 231.5 542 Z " /><path fill="rgb(167,142,117)" stroke="rgb(167,142,117)" stroke-width="1" opacity="0.9803921568627451" d="M 1079.5 542 L 1082 542.5 L 1082 618.5 L 1081 618.5 L 1081 544.5 L 1079.5 542 Z " /><path fill="rgb(167,142,117)" stroke="rgb(167,142,117)" stroke-width="1" opacity="0.9803921568627451" d="M 541 543 L 618 543 L 618 618.5 L 616.5 620 L 541.5 620 L 540 618.5 L 540 545.5 L 541 543 Z M 542 544 L 542 619 L 617 619 L 617 546 L 616 544 L 542 544 Z " /><path fill="rgb(167,142,117)" stroke="rgb(167,142,117)" stroke-width="1" opacity="0.9803921568627451" d="M 76.5 619 L 80 619.5 L 76.5 620 L 76.5 619 Z " /><path fill="rgb(167,142,117)" stroke="rgb(167,142,117)" stroke-width="1" opacity="0.9803921568627451" d="M 1156.5 619 L 1159 619.5 L 1159 675.5 L 1158 675.5 L 1158 621.5 L 1156.5 619 Z " /><path fill="rgb(167,142,117)" stroke="rgb(167,142,117)" stroke-width="1" opacity="0.9803921568627451" d="M 1158.5 693 L 1160 696.5 L 1158 695.5 L 1158.5 693 Z " /><path fill="rgb(167,142,117)" stroke="rgb(167,142,117)" stroke-width="1" opacity="0.9803921568627451" d="M 1310.5 696 L 1313 696.5 L 1310.5 697 L 1310.5 696 Z " /><path fill="rgb(167,142,117)" stroke="rgb(167,142,117)" stroke-width="1" opacity="0.9803921568627451" d="M 309 697 L 311 697.5 L 310 698.5 L 310 849.5 L 308.5 851 L 309 849.5 L 309 697 Z " /><path fill="rgb(167,142,117)" stroke="rgb(167,142,117)" stroke-width="1" opacity="0.9803921568627451" d="M 849.5 697 L 850 772.5 L 848.5 774 L 619 774 L 619 849.5 L 619.5 850 L 925 850 L 925 774.5 L 926.5 774 L 927.5 773 L 1002 773 L 1002.5 697 L 1004 699.5 L 1004 772.5 L 1002.5 774 L 927 774 L 926 776.5 L 926 851 L 618.5 851 L 618 851.5 L 618 927.5 L 619 928.5 L 619 1005 L 616.5 1006 L 542 1006 L 542 1082 L 695 1082 L 695 1006.5 L 696.5 1005 L 1002.5 1005 L 1004 1003.5 L 1004 928 L 1079.5 928 L 1081 926.5 L 1081 851 L 1234 851 L 1234 776.5 L 1236.5 774 L 1309.5 774 L 1311 775.5 L 1311 851 L 1388 851 L 1388 926.5 L 1389.5 928 L 1464.5 928 L 1466 929.5 L 1466 1082 L 1541.5 1082 L 1543 1083.5 L 1543 1236 L 1617.5 1236 L 1620 1237 L 1620 1464.5 L 1617.5 1467 L 1544.5 1467 L 1544 1465.5 L 1543 1464.5 L 1543 1390.5 L 1541.5 1389 L 1467 1389 L 1467 1313.5 L 1465.5 1312 L 1390 1312 L 1390 1159.5 L 1388.5 1158 L 1313 1158 L 1313 1082.5 L 1311.5 1081 L 1236 1081 L 1236 1005.5 L 1234.5 1004 L 1158.5 1004 L 1157 1005.5 L 1157 1157.5 L 1155.5 1159 L 1082.5 1159 L 1081 1157.5 L 1081 1082.5 L 1078.5 1082 L 1077.5 1081 L 1069.5 1081 L 1068.5 1082 L 1059.5 1082 L 1058.5 1081 L 1050.5 1081 L 1049.5 1082 L 1003 1082 L 1003 1157.5 L 1000.5 1158 L 999.5 1159 L 984.5 1159 L 983.5 1158 L 974.5 1158 L 973.5 1159 L 928.5 1159 L 926 1158 L 926 1082 L 772.5 1082 L 771 1083.5 L 771 1236 L 846.5 1236 L 848 1237.5 L 848 1388.5 L 849.5 1390 L 851.5 1391 L 925 1391 L 925 1464.5 L 926 1467 L 928.5 1468 L 1002 1468 L 1002 1541.5 L 1004.5 1544 L 1079.5 1544 L 1081 1545.5 L 1081 1621 L 1156.5 1621 L 1158 1622.5 L 1158 1698 L 1233.5 1698 L 1235 1699.5 L 1235 1927.5 L 1234.5 1928 L 1159.5 1928 L 1158 1929.5 L 1158 2005 L 1081 2005 L 1081 1930.5 L 1077.5 1928 L 851.5 1928 L 849 1930.5 L 849 2005 L 772 2005 L 772 1930.5 L 769.5 1928 L 463 1927.5 L 463 1925.5 L 464 1921.5 L 464 1917.5 Q 465.5 1912 463 1910.5 L 463 1852 L 309.5 1852 L 309 1855.5 L 308 1855.5 Q 309.1 1852.2 306.5 1853 L 305.5 1854 L 233.5 1854 L 231 1853.5 L 230 1850.5 L 231.5 1851 L 233.5 1852 L 309 1852 L 309 1775 L 232 1775 L 231.5 1778 L 231 1776 Q 225.8 1777.8 216.5 1777 L 216.5 1776 L 226.5 1776 L 232 1775 L 232 1699.5 L 230.5 1698 L 155.5 1698 L 155 1699.5 L 153.5 1699 L 150 1698.5 L 155 1698 L 155 1545.5 L 153.5 1544 L 0 1545 L 0.5 1543 L 1.5 1544 L 76.5 1544 L 78 1542.5 L 78 1236.5 L 79.5 1235 L 154 1235 L 154 1081.5 L 155 1080.5 L 155 928 L 152 927.5 L 154.5 926 L 156 928.5 L 156 1081.5 L 155 1082.5 L 155 1236 L 80.5 1236 L 79 1237.5 L 79 1541.5 L 80.5 1543 L 154.5 1543 L 156 1544.5 L 157 1696 L 230.5 1696 L 234 1699.5 L 234 1773 L 307.5 1773 L 311 1776.5 L 311 1850 L 462.5 1850 L 465 1852.5 L 465 1926.5 L 465.5 1927 L 771.5 1927 L 773 1928.5 L 773 2004 L 847 2004 L 847 1930.5 L 849.5 1927 L 1079.5 1927 L 1082 1929.5 L 1082 2004 L 1156 2004 L 1156 1929.5 L 1158.5 1927 L 1232.5 1927 L 1233 1926.5 L 1233 1699 L 1158.5 1699 L 1156 1696.5 L 1156 1622 L 1081.5 1622 L 1079 1619.5 L 1079 1545 L 928.5 1544 L 927 1542.5 L 927 1468.5 L 925.5 1468 L 924.5 1467 L 774.5 1467 L 773 1465.5 L 773 1391.5 L 771.5 1390 L 619.5 1390 L 619 1388.5 L 618 1387.5 L 618 1313 L 542.5 1313 L 541 1311.5 L 541 1237.5 L 539.5 1236 L 464.5 1236 L 463 1234.5 L 463 1082 L 538.5 1082 L 540 1080.5 L 540 1006.5 L 541.5 1005 L 615.5 1005 L 617 1003.5 L 617 852.5 L 616 851.5 L 617 850.5 L 617 776.5 L 619.5 773 L 847.5 773 L 848 772.5 L 848 698.5 L 849.5 697 Z M 465 1083 L 465 1235 L 540 1235 L 541 1234 L 541 1083 L 465 1083 Z " /><path fill="rgb(167,142,117)" stroke="rgb(167,142,117)" stroke-width="1" opacity="0.9803921568627451" d="M 462.5 768 L 463 770.5 L 462 770.5 L 462.5 768 Z " /><path fill="rgb(167,142,117)" stroke="rgb(167,142,117)" stroke-width="1" opacity="0.9803921568627451" d="M 539.5 774 L 541 776.5 L 541 849.5 L 542 850.5 L 540 851 L 540 776.5 L 539.5 774 Z " /><path fill="rgb(167,142,117)" stroke="rgb(167,142,117)" stroke-width="1" opacity="0.9803921568627451" d="M 231.5 848 L 234 851.5 L 233 852.5 L 233 926.5 L 231.5 928 L 232 926.5 L 232 851.5 L 229.5 851 L 229.5 850 Q 232 850.7 231.5 848 Z " /><path fill="rgb(167,142,117)" stroke="rgb(167,142,117)" stroke-width="1" opacity="0.9803921568627451" d="M 1389.5 849 L 1390.5 851 L 1389.5 849 Z " /><path fill="rgb(167,142,117)" stroke="rgb(167,142,117)" stroke-width="1" opacity="0.9803921568627451" d="M 153.5 850 L 156 850.5 L 153.5 851 L 153.5 850 Z " /><path fill="rgb(167,142,117)" stroke="rgb(167,142,117)" stroke-width="1" opacity="0.9803921568627451" d="M 1543.5 927 L 1545 929.5 L 1544 929.5 L 1543.5 927 Z " /><path fill="rgb(167,142,117)" stroke="rgb(167,142,117)" stroke-width="1" opacity="0.9803921568627451" d="M 1544.5 931 L 1545 1077.5 L 1544 1077.5 L 1544.5 931 Z " /><path fill="rgb(167,142,117)" stroke="rgb(167,142,117)" stroke-width="1" opacity="0.9803921568627451" d="M 1621.5 1081 L 1622 1233.5 L 1621 1233.5 L 1621.5 1081 Z " /><path fill="rgb(167,142,117)" stroke="rgb(167,142,117)" stroke-width="1" opacity="0.9803921568627451" d="M 1621.5 1235 L 1629 1235.5 L 1621.5 1236 L 1621.5 1235 Z " /><path fill="rgb(167,142,117)" stroke="rgb(167,142,117)" stroke-width="1" opacity="0.9803921568627451" d="M 1694.5 1235 Q 1698.3 1234.3 1699 1236.5 L 1698.5 1772 L 1698 1236 Q 1693.6 1237 1694.5 1235 Z " /><path fill="rgb(167,142,117)" stroke="rgb(167,142,117)" stroke-width="1" opacity="0.9803921568627451" d="M 928 1236 L 1001.5 1236 L 1003 1237.5 L 1003 1311.5 L 1001.5 1313 L 928 1313 L 928 1236 Z " /><path fill="rgb(167,142,117)" stroke="rgb(167,142,117)" stroke-width="1" opacity="0.9803921568627451" d="M 1082.5 1236 L 1155.5 1236 L 1157 1237.5 L 1157 1311.5 L 1155.5 1313 L 1082.5 1313 L 1081 1311.5 L 1081 1237.5 L 1082.5 1236 Z " /><path fill="rgb(167,142,117)" stroke="rgb(167,142,117)" stroke-width="1" opacity="0.9803921568627451" d="M 1236.5 1236 L 1309.5 1236 L 1311 1237.5 L 1311 1309.5 L 1310 1313 L 1236.5 1313 L 1235 1311.5 L 1235 1237.5 L 1236.5 1236 Z " /><path fill="rgb(167,142,117)" stroke="rgb(167,142,117)" stroke-width="1" opacity="0.9803921568627451" d="M 1004 1313 L 1078.5 1313 L 1080 1314.5 L 1080 1388.5 L 1078.5 1390 L 1005.5 1390 L 1004 1388.5 L 1004 1313 Z " /><path fill="rgb(167,142,117)" stroke="rgb(167,142,117)" stroke-width="1" opacity="0.9803921568627451" d="M 1158 1313 L 1234 1313 L 1234 1388.5 L 1232.5 1390 L 1159.5 1390 L 1158 1388.5 L 1158 1313 Z " /><path fill="rgb(167,142,117)" stroke="rgb(167,142,117)" stroke-width="1" opacity="0.9803921568627451" d="M 1312 1314 L 1388 1314 L 1388 1388.5 L 1386.5 1390 L 1313.5 1390 L 1312 1388.5 L 1312 1314 Z " /><path fill="rgb(167,142,117)" stroke="rgb(167,142,117)" stroke-width="1" opacity="0.9803921568627451" d="M 1081 1390 L 1155.5 1390 L 1157 1391.5 L 1157 1465.5 L 1155.5 1467 L 1082.5 1467 L 1082 1465.5 L 1081 1464.5 L 1081 1390 Z " /><path fill="rgb(167,142,117)" stroke="rgb(167,142,117)" stroke-width="1" opacity="0.9803921568627451" d="M 1236.5 1390 L 1310.5 1390 L 1312 1391.5 L 1312 1464.5 L 1309.5 1467 L 1236.5 1467 L 1235 1465.5 L 1235 1391.5 L 1236.5 1390 Z " /><path fill="rgb(167,142,117)" stroke="rgb(167,142,117)" stroke-width="1" opacity="0.9803921568627451" d="M 1389 1391 L 1465 1391 L 1465 1465.5 L 1463.5 1467 L 1390 1467 L 1389 1464.5 L 1389 1391 Z " /><path fill="rgb(167,142,117)" stroke="rgb(167,142,117)" stroke-width="1" opacity="0.9803921568627451" d="M 1159.5 1467 L 1234 1467 L 1234 1542.5 L 1232.5 1544 L 1159 1544 L 1158 1541.5 L 1158 1468.5 L 1159.5 1467 Z " /><path fill="rgb(167,142,117)" stroke="rgb(167,142,117)" stroke-width="1" opacity="0.9803921568627451" d="M 1313.5 1467 L 1387.5 1467 L 1389 1468.5 L 1389 1542.5 L 1387.5 1543 L 1386.5 1544 L 1313.5 1544 L 1312 1542.5 L 1312 1468.5 L 1313.5 1467 Z " /><path fill="rgb(167,142,117)" stroke="rgb(167,142,117)" stroke-width="1" opacity="0.9803921568627451" d="M 1467 1468 L 1542 1468 L 1542 1542.5 L 1540.5 1544 L 1467 1544 L 1467 1468 Z " /><path fill="rgb(167,142,117)" stroke="rgb(167,142,117)" stroke-width="1" opacity="0.9803921568627451" d="M 1236.5 1544 L 1310.5 1544 L 1312 1545.5 L 1312 1618.5 L 1309.5 1621 L 1236.5 1621 L 1236 1619.5 L 1235 1618.5 L 1235 1545.5 L 1236.5 1544 Z " /><path fill="rgb(167,142,117)" stroke="rgb(167,142,117)" stroke-width="1" opacity="0.9803921568627451" d="M 1390.5 1544 L 1464.5 1544 L 1466 1545.5 L 1466 1619.5 L 1464.5 1620 L 1463.5 1621 L 1390 1621 L 1389 1618.5 L 1389 1545.5 L 1390.5 1544 Z " /><path fill="rgb(167,142,117)" stroke="rgb(167,142,117)" stroke-width="1" opacity="0.9803921568627451" d="M 1313.5 1621 L 1387.5 1621 L 1389 1622.5 L 1389 1697 L 1313.5 1697 L 1312 1695.5 L 1312 1622.5 L 1313.5 1621 Z " /><path fill="rgb(167,142,117)" stroke="rgb(167,142,117)" stroke-width="1" opacity="0.9803921568627451" d="M 1467 1621 L 1540.5 1621 L 1542 1622.5 L 1542 1680.5 L 1541 1683.5 Q 1543.5 1685 1542 1690.5 Q 1540.8 1693.3 1539.5 1691 L 1534.5 1690 Q 1528 1691.5 1525.5 1697 L 1467 1697 L 1467 1621 Z M 1536 1673 L 1534 1675 L 1536 1677 L 1539 1675 L 1536 1673 Z " /><path fill="rgb(167,142,117)" stroke="rgb(167,142,117)" stroke-width="1" opacity="0.9803921568627451" d="M 1532 1695 L 1538.5 1695 L 1539 1697 L 1532.5 1697 L 1532 1695 Z " /><path fill="rgb(167,142,117)" stroke="rgb(167,142,117)" stroke-width="1" opacity="0.9803921568627451" d="M 76 1697 L 79.5 1698 L 149 1698.5 L 76 1699 L 76 1697 Z " /><path fill="rgb(167,142,117)" stroke="rgb(167,142,117)" stroke-width="1" opacity="0.9803921568627451" d="M 1390.5 1698 L 1464.5 1698 L 1466 1699.5 L 1466 1773 L 1389 1773 L 1389 1699.5 L 1390.5 1698 Z " /><path fill="rgb(167,142,117)" stroke="rgb(167,142,117)" stroke-width="1" opacity="0.9803921568627451" d="M 1698 1773 L 1774.5 1773 L 1775 1774.5 L 1776 1775.5 L 1776 1850 L 1851.5 1850 L 1852 1851.5 L 1853 1852.5 L 1853 1927 L 1928.5 1927 L 1929 1928.5 L 1930 1929.5 L 1930 2004 L 1957 2004.5 L 1954.5 2006 L 1952.5 2005 L 1950.5 2005 L 1946.5 2006 L 1941.5 2005 L 1937.5 2005 L 1930.5 2006 L 1929 2004.5 L 1929 1929 L 1853.5 1929 L 1852 1927.5 L 1852 1852 L 1775 1852 L 1775 1775 L 1698.5 1775 L 1698 1773 Z " /><path fill="rgb(167,142,117)" stroke="rgb(167,142,117)" stroke-width="1" opacity="0.9803921568627451" d="M 153 1774 L 161 1775.5 L 154.5 1777 L 153 1774 Z " /><path fill="rgb(167,142,117)" stroke="rgb(167,142,117)" stroke-width="1" opacity="0.9803921568627451" d="M 162.5 1775 L 163.5 1776 L 175.5 1776 L 177.5 1775 L 180 1776.5 L 162 1777 L 162.5 1775 Z " /><path fill="rgb(167,142,117)" stroke="rgb(167,142,117)" stroke-width="1" opacity="0.9803921568627451" d="M 211.5 1775 L 215 1776.5 L 185.5 1777 L 185.5 1776 L 210.5 1776 L 211.5 1775 Z " /><path fill="rgb(167,142,117)" stroke="rgb(167,142,117)" stroke-width="1" opacity="0.9803921568627451" d="M 1622.5 1852 L 1694.5 1852 L 1697 1853 L 1697 1927.5 L 1698.5 1929 L 1771.5 1929 L 1774 1930 L 1774 2004.5 L 1775.5 2006 L 1849.5 2006 L 1851 2007.5 L 1851 2081 L 1699.5 2081 L 1698 2078.5 L 1699 2077.5 L 1699 2008.5 L 1698 2004 L 1621 2004 L 1621 1853.5 L 1622.5 1852 Z " /><path fill="rgb(167,142,117)" stroke="rgb(167,142,117)" stroke-width="1" opacity="0.9803921568627451" d="M 308 1928 L 311.5 1929 L 463 1929 L 462.5 1934 L 462 1930 L 459.5 1931 L 308 1931 L 308 1928 Z " /><path fill="rgb(167,142,117)" stroke="rgb(167,142,117)" stroke-width="1" opacity="0.9803921568627451" d="M 1467 1929 L 1542.5 1929 L 1543 1931 L 1467.5 1931 L 1467 1929 Z " /><path fill="rgb(167,142,117)" stroke="rgb(167,142,117)" stroke-width="1" opacity="0.9803921568627451" d="M 462 2004 L 465.5 2006 L 772 2006 L 772 2080.5 L 770.5 2082 L 696.5 2082 L 695 2083.5 L 695 2160 L 847.5 2160 L 849 2158.5 L 849 2006 L 1080.5 2006 L 1081 2009.5 L 1080 2010.5 L 1080 2082 L 1004.5 2082 L 1004 2083.5 L 1003 2084.5 L 1003 2158.5 L 1004.5 2160 L 1156.5 2160 L 1159 2159 L 1158.5 2161 L 1156.5 2161 L 1149.5 2162 L 1147.5 2162 L 1145.5 2161 Q 1144.3 2163.3 1139.5 2162 L 1137.5 2162 L 1135.5 2161 L 1131.5 2162 L 1127.5 2162 L 1123.5 2161 L 1118.5 2162 L 1114.5 2162 L 1112.5 2161 L 1110.5 2162 L 1106.5 2162 L 1102.5 2161 L 1097.5 2162 L 1094.5 2161 L 1091.5 2162 L 1086.5 2161 L 1082.5 2162 L 1079.5 2161 L 1074.5 2162 L 1072.5 2162 L 1069.5 2161 L 1068.5 2162 L 1060.5 2162 L 1058.5 2161 L 1057.5 2162 L 1044.5 2162 L 1042.5 2162 L 1038.5 2161 L 1036.5 2162 L 1034.5 2162 L 1032.5 2161 L 1029.5 2162 L 1025.5 2161 L 1023.5 2162 L 1021.5 2161 L 1019.5 2161 L 1016.5 2162 L 1013.5 2161 L 1008.5 2162 L 1006.5 2162 L 1002.5 2160 L 1002.5 2162 Q 999.8 2160.8 1002 2159.5 L 1002 2086.5 L 1001 2085.5 L 1003.5 2081 L 1079 2081 L 1079 2007 L 1076.5 2008 L 852.5 2008 Q 851.3 2005.8 850 2008.5 L 851 2009.5 L 851 2160 L 842.5 2162 L 840.5 2162 L 830.5 2161 Q 829.3 2163.3 824.5 2162 L 822.5 2162 L 814.5 2162 L 813.5 2161 L 811.5 2162 L 809.5 2162 L 805.5 2161 L 802.5 2162 L 799.5 2161 L 797.5 2162 L 795.5 2162 L 792.5 2161 L 789.5 2162 L 785.5 2162 L 780.5 2161 L 778.5 2161 L 776.5 2162 L 774.5 2161 L 773.5 2162 L 749.5 2162 L 747.5 2162 L 738.5 2161 L 733.5 2162 L 731.5 2162 L 724.5 2161 L 721.5 2162 L 719.5 2161 L 718.5 2162 L 710.5 2162 L 708.5 2161 L 706.5 2162 L 704.5 2162 Q 696.6 2162.8 693 2160 L 693 2082.5 L 694.5 2082 L 695.5 2081 L 770 2081 L 770 2007.5 L 768.5 2007 L 767.5 2008 L 464 2008 L 463.5 2006 L 462.5 2008 L 462 2004 Z " /><path fill="rgb(167,142,117)" stroke="rgb(167,142,117)" stroke-width="1" opacity="0.9803921568627451" d="M 1464.5 2005 Q 1468.7 2003.9 1467 2008 L 1161.5 2008 L 1159 2007 L 1158.5 2013 L 1158 2006 L 1463.5 2006 L 1464.5 2005 Z " /><path fill="rgb(167,142,117)" stroke="rgb(167,142,117)" stroke-width="1" opacity="0.9803921568627451" d="M 1543 2006 L 1619.5 2006 L 1620 2008 L 1543.5 2008 L 1543 2006 Z " /><path fill="rgb(167,142,117)" stroke="rgb(167,142,117)" stroke-width="1" opacity="0.9803921568627451" d="M 1619.5 2082 L 1620.5 2083 L 1697 2083 L 1696.5 2085 L 1620 2085 L 1619.5 2082 Z " /><path fill="rgb(167,142,117)" stroke="rgb(167,142,117)" stroke-width="1" opacity="0.9803921568627451" d="M 1929 2083 L 1956.5 2083 L 1957 2085 L 1932.5 2085 L 1930 2084 L 1930 2159.5 L 1928.5 2161 L 1918.5 2162 L 1916.5 2161 L 1913.5 2162 L 1910.5 2161 L 1907.5 2162 L 1900.5 2161 Q 1899.2 2163.3 1894.5 2162 L 1890.5 2162 L 1887.5 2161 L 1883.5 2161 L 1881.5 2162 L 1876.5 2161 L 1874.5 2161 L 1872.5 2162 L 1869.5 2161 L 1864.5 2162 L 1861.5 2161 L 1856.5 2162 L 1852.5 2162 L 1850.5 2161 L 1848.5 2161 L 1845.5 2162 L 1843.5 2162 L 1838.5 2161 L 1836.5 2161 L 1829.5 2162 L 1827.5 2162 L 1817.5 2161 L 1815.5 2162 L 1812.5 2161 L 1806.5 2162 L 1804.5 2161 L 1802.5 2162 L 1800.5 2161 L 1797.5 2162 L 1792.5 2161 L 1785.5 2162 L 1783.5 2162 L 1777.5 2161 L 1772.5 2162 L 1768.5 2162 L 1766.5 2161 L 1763.5 2162 L 1757.5 2161 L 1755.5 2162 L 1752.5 2161 L 1748.5 2162 L 1746.5 2162 L 1744.5 2161 L 1742.5 2162 L 1740.5 2162 L 1730.5 2161 L 1728.5 2161 L 1724.5 2162 L 1722.5 2162 Q 1717.8 2163.3 1716.5 2161 L 1714.5 2162 L 1712.5 2161 L 1710.5 2161 L 1705.5 2162 L 1703.5 2161 L 1701.5 2162 L 1697 2161.5 L 1697.5 2160 L 1929 2160 L 1929 2083 Z " /><path fill="rgb(167,142,117)" stroke="rgb(167,142,117)" stroke-width="1" opacity="0.9803921568627451" d="M 1158.5 2094 L 1159 2098.5 L 1158 2098.5 L 1158.5 2094 Z " /><path fill="rgb(124,32,44)" stroke="rgb(124,32,44)" stroke-width="1" opacity="0.984313725490196" d="M 464.5 5 L 465 310.5 L 464 313 L 462 312.5 L 464 310.5 L 464.5 5 Z " /><path fill="rgb(124,32,44)" stroke="rgb(124,32,44)" stroke-width="1" opacity="0.984313725490196" d="M 539.5 5 L 540 79.5 L 539 79.5 L 539.5 5 Z " /><path fill="rgb(124,32,44)" stroke="rgb(124,32,44)" stroke-width="1" opacity="0.984313725490196" d="M 616.5 84 L 617 91.5 L 616 91.5 L 616.5 84 Z " /><path fill="rgb(124,32,44)" stroke="rgb(124,32,44)" stroke-width="1" opacity="0.984313725490196" d="M 616.5 125 L 617 129.5 L 616 129.5 L 616.5 125 Z " /><path fill="rgb(124,32,44)" stroke="rgb(124,32,44)" stroke-width="1" opacity="0.984313725490196" d="M 694.5 311 L 695.5 313 Q 692.7 313.7 694.5 311 Z " /><path fill="rgb(124,32,44)" stroke="rgb(124,32,44)" stroke-width="1" opacity="0.984313725490196" d="M 387.5 313 L 388 464.5 L 385 466.5 L 387 464.5 L 387.5 313 Z " /><path fill="rgb(124,32,44)" stroke="rgb(124,32,44)" stroke-width="1" opacity="0.984313725490196" d="M 771.5 388 L 772.5 390 L 771.5 388 Z " /><path fill="rgb(124,32,44)" stroke="rgb(124,32,44)" stroke-width="1" opacity="0.984313725490196" d="M 925.5 465 L 928 466.5 L 926.5 467 L 925.5 465 Z " /><path fill="rgb(124,32,44)" stroke="rgb(124,32,44)" stroke-width="1" opacity="0.984313725490196" d="M 1002.5 468 L 1003 541.5 L 1004.5 543 L 1078 543.5 L 1004.5 544 L 1002 543 L 1002.5 468 Z " /><path fill="rgb(124,32,44)" stroke="rgb(124,32,44)" stroke-width="1" opacity="0.984313725490196" d="M 310.5 469 L 311 531.5 L 310 531.5 L 310.5 469 Z " /><path fill="rgb(124,32,44)" stroke="rgb(124,32,44)" stroke-width="1" opacity="0.984313725490196" d="M 310.5 533 L 311 536.5 L 310 536.5 L 310.5 533 Z " /><path fill="rgb(124,32,44)" stroke="rgb(124,32,44)" stroke-width="1" opacity="0.984313725490196" d="M 310.5 540 L 311 541.5 L 308.5 544 L 234.5 544 L 233.5 545 L 234.5 543 L 308.5 543 L 310 541.5 L 310.5 540 Z " /><path fill="rgb(124,32,44)" stroke="rgb(124,32,44)" stroke-width="1" opacity="0.984313725490196" d="M 540.5 542 L 540 543.5 L 540 619.5 L 541.5 621 L 543.5 622 L 615.5 622 L 619 619.5 L 619 543.5 L 617.5 543 L 617.5 542 L 619.5 543 L 692.5 543 L 694 544.5 L 694 618.5 L 695.5 619 L 696.5 620 L 849 620 L 848 773 L 618.5 773 L 617 774.5 L 616.5 850 L 616 774.5 L 617 773.5 L 617 696 L 541 696 L 541 622.5 L 539 619.5 L 539 543.5 L 540.5 542 Z " /><path fill="rgb(124,32,44)" stroke="rgb(124,32,44)" stroke-width="1" opacity="0.984313725490196" d="M 1079.5 545 L 1080 618.5 L 1081.5 620 L 1155.5 620 L 1157 621.5 L 1157 697 L 1309.5 697 L 1311 698.5 L 1311 772.5 L 1309.5 774 L 1157 774 L 1157 699.5 L 1156 697 L 1082.5 697 L 1082 698.5 L 1081 699.5 L 1081 774 L 1004 774 L 1004 851 L 927 851 L 927 927.5 L 926.5 928 L 619.5 928 L 619.5 927 L 925.5 927 L 926 926.5 L 926 853.5 L 924.5 852 L 619 851.5 L 927 851 L 927 775.5 L 928.5 774 L 1004 774 L 1004 698.5 L 1005 698.5 L 1005 773 L 1080 773 L 1080 697.5 L 1081.5 697 L 1082.5 696 L 1156 696 L 1156 621 L 1081.5 621 L 1079 618.5 L 1079.5 545 Z M 1160 698 L 1158 700 L 1158 773 L 1310 773 L 1310 698 L 1160 698 Z M 928 775 L 928 850 L 1003 850 L 1003 777 L 1002 775 L 928 775 Z " /><path fill="rgb(124,32,44)" stroke="rgb(124,32,44)" stroke-width="1" opacity="0.984313725490196" d="M 231.5 619 L 233 619.5 L 230.5 621 L 80.5 621 L 79 622.5 L 78.5 696 L 78 622.5 L 80.5 620 L 230.5 620 L 231.5 619 Z " /><path fill="rgb(124,32,44)" stroke="rgb(124,32,44)" stroke-width="1" opacity="0.984313725490196" d="M 80.5 696 L 232 696.5 L 80.5 697 L 80.5 696 Z " /><path fill="rgb(124,32,44)" stroke="rgb(124,32,44)" stroke-width="1" opacity="0.984313725490196" d="M 309.5 696 L 308.5 698 L 309.5 696 Z " /><path fill="rgb(124,32,44)" stroke="rgb(124,32,44)" stroke-width="1" opacity="0.984313725490196" d="M 463.5 696 L 465 697.5 L 465 772.5 L 464 772.5 L 464 697.5 L 463.5 696 Z " /><path fill="rgb(124,32,44)" stroke="rgb(124,32,44)" stroke-width="1" opacity="0.984313725490196" d="M 540.5 773 L 542 774.5 L 542 849.5 L 541 849.5 L 541 774.5 L 540.5 773 Z " /><path fill="rgb(124,32,44)" stroke="rgb(124,32,44)" stroke-width="1" opacity="0.984313725490196" d="M 1313.5 774 L 1387.5 774 L 1388 775.5 L 1386.5 775 L 1313 775 L 1313 850 L 1386.5 850 L 1387 848.5 L 1388 848.5 L 1386.5 851 L 1313.5 851 L 1312 849.5 L 1312 775.5 L 1313.5 774 Z " /><path fill="rgb(124,32,44)" stroke="rgb(124,32,44)" stroke-width="1" opacity="0.984313725490196" d="M 1390.5 851 L 1390 852.5 L 1390 927 L 1465 927 L 1465.5 910 L 1466 926.5 L 1464.5 928 L 1390.5 928 L 1389 926.5 L 1389 852.5 L 1390.5 851 Z " /><path fill="rgb(124,32,44)" stroke="rgb(124,32,44)" stroke-width="1" opacity="0.984313725490196" d="M 1464.5 851 L 1466 853.5 L 1466 908.5 L 1465 908.5 L 1465 853.5 L 1464.5 851 Z " /><path fill="rgb(124,32,44)" stroke="rgb(124,32,44)" stroke-width="1" opacity="0.984313725490196" d="M 79.5 928 L 79 929.5 L 79 1080.5 L 80 1081.5 L 79 1082.5 L 79 1232.5 L 77.5 1236 L 77 1082.5 L 78 1081.5 L 78 929.5 L 79.5 928 Z " /><path fill="rgb(124,32,44)" stroke="rgb(124,32,44)" stroke-width="1" opacity="0.984313725490196" d="M 1541.5 928 L 1543 929.5 L 1543 1080.5 L 1541.5 1082 L 1467.5 1082 L 1466 1080.5 L 1466 929.5 L 1467 929.5 L 1467 1081 L 1542 1081 L 1542 929.5 L 1541.5 928 Z " /><path fill="rgb(124,32,44)" stroke="rgb(124,32,44)" stroke-width="1" opacity="0.984313725490196" d="M 1159 1005 L 1232.5 1005 L 1234 1006.5 L 1234 1080.5 L 1232.5 1082 L 1159 1082 L 1159 1017.5 L 1158 1016.5 L 1158 1008.5 L 1159 1005 Z " /><path fill="rgb(124,32,44)" stroke="rgb(124,32,44)" stroke-width="1" opacity="0.984313725490196" d="M 1.5 1082 L 2 1541.5 L 3 1542.5 L 0 1540.5 L 1 1538.5 L 1 1536.5 L 1 1521.5 L 0 1519.5 L 1 1518.5 L 1 1489.5 L 1 1487.5 L 1 1479.5 L 0 1478.5 L 0 1474.5 L 1 1472.5 L 1 1468.5 L 0 1463.5 L 1 1460.5 L 0 1457.5 L 1 1454.5 Q -1.3 1453.3 0 1448.5 Q 2.8 1446.8 1 1440.5 L 0 1438.5 L 1 1434.5 L 0 1431.5 L 1 1428.5 L 0 1423.5 L 1 1422.5 L 1 1411.5 Q -1.3 1410.3 0 1405.5 Q 2.3 1404.3 1 1399.5 L 0 1398.5 L 0 1389.5 L 1 1387.5 L 0 1385.5 L 0 1383.5 L 1 1381.5 L 0 1378.5 L 1 1369.5 L 0 1365.5 Q 2.8 1363.8 1 1357.5 L 0 1352.5 L 1 1347.5 L 0 1344.5 L 1 1341.5 L 0 1337.5 L 1 1332.5 L 0 1330.5 L 1 1329.5 L 1 1320.5 L 1 1318.5 Q 2.8 1312.3 0 1310.5 L 1 1308.5 L 0 1305.5 L 1 1302.5 L 0 1299.5 L 1 1296.5 L 0 1294.5 L 1 1292.5 L 0 1290.5 L 1 1288.5 L 0 1286.5 L 1 1284.5 L 0 1282.5 L 1 1280.5 L 0 1278.5 L 0 1276.5 L 1 1269.5 L 0 1267.5 L 1 1265.5 L 0 1263.5 L 1 1261.5 L 0 1259.5 L 1 1257.5 L 0 1255.5 L 1 1253.5 L 0 1251.5 L 0 1249.5 L 1 1246.5 L 0 1244.5 L 1 1242.5 L 0 1240.5 L 1 1238.5 L 0 1236.5 L 1 1234.5 L 0 1232.5 L 1 1230.5 L 0 1228.5 L 1 1226.5 L 1 1224.5 L 0 1221.5 L 1 1219.5 L 0 1217.5 L 1 1215.5 L 0 1213.5 L 1 1211.5 L 0 1209.5 L 1 1207.5 L 0 1205.5 L 1 1203.5 L 0 1201.5 L 1 1199.5 L 1 1197.5 L 0 1194.5 L 1 1192.5 L 0 1190.5 L 1 1188.5 L 0 1186.5 L 1 1184.5 L 0 1182.5 L 1 1180.5 L 0 1178.5 L 1 1176.5 L 0 1174.5 L 1 1172.5 L 1 1170.5 L 0 1167.5 L 1 1165.5 L 0 1163.5 L 1 1161.5 Q -1.3 1160.3 0 1155.5 L 1 1153.5 L 0 1151.5 L 1 1149.5 L 0 1147.5 L 1 1143.5 L 0 1139.5 L 1 1137.5 L 1 1135.5 L 0 1132.5 L 1 1130.5 L 0 1126.5 L 1 1123.5 L 0 1120.5 L 1 1115.5 L 1 1113.5 L 0 1108.5 L 0 1106.5 Q -1.5 1101 1 1099.5 L 0 1097.5 L 1 1094.5 L 0 1092.5 L 0 1090.5 Q -1.1 1084.4 1.5 1082 Z " /><path fill="rgb(124,32,44)" stroke="rgb(124,32,44)" stroke-width="1" opacity="0.984313725490196" d="M 1236.5 1082 L 1309.5 1082 L 1311 1083.5 L 1311 1157.5 L 1309.5 1159 L 1236.5 1159 L 1235 1157.5 L 1235 1083.5 L 1236.5 1082 Z " /><path fill="rgb(124,32,44)" stroke="rgb(124,32,44)" stroke-width="1" opacity="0.984313725490196" d="M 1619.5 1082 L 1621 1089.5 L 1620 1092.5 L 1621 1094.5 L 1620 1096.5 L 1621 1098.5 L 1620 1100.5 L 1621 1102.5 L 1621 1104.5 L 1620 1109.5 L 1620 1111.5 L 1621 1141.5 L 1620 1144.5 L 1621 1146.5 L 1620 1149.5 L 1621 1150.5 L 1621 1163.5 L 1621 1165.5 L 1620 1168.5 L 1621 1169.5 L 1621 1180.5 L 1620 1182.5 L 1621 1185.5 L 1621 1187.5 L 1620 1212.5 Q 1622.2 1213.8 1621 1218.5 L 1620 1221.5 L 1621 1223.5 L 1620 1226.5 L 1621 1228.5 L 1621 1230.5 L 1618.5 1236 L 1544 1235.5 L 1619 1235 L 1619.5 1082 Z " /><path fill="rgb(124,32,44)" stroke="rgb(124,32,44)" stroke-width="1" opacity="0.984313725490196" d="M 1543.5 1084 L 1544 1232.5 L 1543 1232.5 L 1543.5 1084 Z " /><path fill="rgb(124,32,44)" stroke="rgb(124,32,44)" stroke-width="1" opacity="0.984313725490196" d="M 774.5 1158 L 847.5 1158 L 850 1159 L 850 1235 L 924.5 1235 L 926 1236.5 L 927 1389 L 1001.5 1389 L 1004 1390 L 1004 1464.5 L 1005.5 1466 L 1078.5 1466 L 1081 1467 L 1081 1541.5 L 1082.5 1543 L 1155.5 1543 L 1158 1544 L 1158 1618.5 L 1159.5 1620 L 1233.5 1620 L 1236 1622.5 L 1236 1697 L 1310.5 1697 L 1313 1699.5 L 1313 1774 L 1464.5 1775 L 1465.5 1774 L 1540.5 1774 L 1543 1773 L 1542 1712.5 L 1543 1711.5 L 1543 1696.5 L 1544 1695.5 L 1544 1619.5 L 1543 1618.5 L 1543 1545.5 L 1544 1544.5 L 1544 1468 L 1619.5 1468 L 1620 1465.5 L 1621 1465.5 L 1620 1468.5 L 1620 1698 L 1544 1698 L 1544 1773.5 L 1542.5 1775 L 1388.5 1776 L 1387.5 1775 L 1313.5 1775 L 1312 1776.5 L 1312 1850.5 L 1313.5 1852 L 1466 1852 L 1466 1926.5 L 1467 1928.5 L 1466 1929.5 L 1466 1960.5 L 1466 1962.5 L 1466 2003.5 L 1464.5 2005 L 1465 2003.5 L 1465 1930.5 L 1463.5 1929 L 1235.5 1929 L 1234.5 1930 L 1159 1930 L 1159 2003.5 L 1160 2004.5 L 1158 2003.5 L 1158 1930.5 L 1159.5 1929 L 1234.5 1929 L 1235 1927.5 L 1236 1926.5 L 1236 1775.5 L 1235 1774.5 L 1235 1697 L 1159.5 1697 L 1158 1695.5 L 1158 1620 L 1082.5 1620 L 1081 1618.5 L 1081 1543 L 1004 1542.5 L 1080 1542 L 1080 1468.5 L 1078.5 1468 L 1077.5 1467 L 1005.5 1467 L 1003.5 1468 L 1002.5 1467 L 928.5 1467 L 927 1465.5 L 928.5 1466 L 1001.5 1466 L 1003 1464.5 L 1003 1391.5 L 1001.5 1391 L 1000.5 1390 L 928.5 1390 L 926.5 1391 L 925.5 1390 L 850 1390 L 849 1387.5 L 849 1236 L 773.5 1236 L 772 1234.5 L 772 1159.5 L 773.5 1159 L 774.5 1158 Z M 775 1159 L 773 1161 L 773 1235 L 848 1235 L 848 1159 L 775 1159 Z M 852 1236 L 850 1238 L 850 1388 L 852 1389 L 925 1389 L 926 1387 L 925 1238 L 924 1236 L 852 1236 Z M 1082 1544 L 1082 1619 L 1157 1619 L 1157 1545 L 1155 1544 L 1082 1544 Z M 1159 1621 L 1159 1696 L 1234 1696 L 1234 1623 L 1233 1621 L 1159 1621 Z M 1236 1698 L 1236 1775 L 1310 1775 L 1311 1774 L 1311 1700 L 1310 1698 L 1236 1698 Z " /><path fill="rgb(124,32,44)" stroke="rgb(124,32,44)" stroke-width="1" opacity="0.984313725490196" d="M 1313.5 1159 L 1386.5 1159 L 1388 1160.5 L 1388 1312 L 1313 1312 L 1312 1160.5 L 1313.5 1159 Z " /><path fill="rgb(124,32,44)" stroke="rgb(124,32,44)" stroke-width="1" opacity="0.984313725490196" d="M 1696.5 1236 L 1698 1237.5 L 1698 1770.5 L 1697 1775 L 1773 1775.5 L 1698 1776 L 1698 1851 L 1772.5 1851 L 1774 1849.5 L 1774.5 1776 L 1775 1849.5 L 1774 1852 L 1850 1852.5 L 1775 1853 L 1775 1928 L 1849.5 1928 L 1851 1926.5 L 1851.5 1853 L 1852 1927.5 L 1851.5 1929 L 1927 1929.5 L 1852 1930 L 1852 2005 L 1926.5 2005 L 1928 2003.5 L 1928.5 1930 L 1929 2004.5 L 1928.5 2006 L 1957 2006.5 L 1929 2007 L 1929 2080.5 L 1930 2081.5 L 1929 2082.5 L 1929 2159 L 1927 2158.5 L 1928 2157.5 L 1928 2084.5 L 1926.5 2083 L 1851.5 2083 L 1850.5 2084 L 1698 2084 L 1698.5 2082 L 1928 2082 L 1928 2007 L 1853.5 2007 L 1851 2004.5 L 1851 1930 L 1776.5 1930 L 1774 1927.5 L 1774 1853 L 1698.5 1853 L 1698 1851.5 L 1697 1850.5 L 1697 1776 L 1621.5 1776 L 1621 1776.5 L 1621 2003.5 L 1618.5 2005 L 1618.5 2004 L 1620 2003.5 L 1620 1775.5 L 1621.5 1774 L 1696 1774 L 1696.5 1236 Z " /><path fill="rgb(124,32,44)" stroke="rgb(124,32,44)" stroke-width="1" opacity="0.984313725490196" d="M 1390 1314 L 1465 1314 L 1465 1389 L 1390 1389 L 1390 1314 Z " /><path fill="rgb(124,32,44)" stroke="rgb(124,32,44)" stroke-width="1" opacity="0.984313725490196" d="M 1467 1391 L 1542 1391 L 1542 1464.5 L 1540.5 1466 L 1467 1466 L 1467 1391 Z " /><path fill="rgb(124,32,44)" stroke="rgb(124,32,44)" stroke-width="1" opacity="0.984313725490196" d="M 78.5 1545 L 79 1696 L 81 1696.5 L 79.5 1697 L 78 1695.5 L 78.5 1545 Z " /><path fill="rgb(124,32,44)" stroke="rgb(124,32,44)" stroke-width="1" opacity="0.984313725490196" d="M 82.5 1696 L 85 1696.5 L 82.5 1697 L 82.5 1696 Z " /><path fill="rgb(124,32,44)" stroke="rgb(124,32,44)" stroke-width="1" opacity="0.984313725490196" d="M 107.5 1696 L 110 1696.5 L 107.5 1697 L 107.5 1696 Z " /><path fill="rgb(124,32,44)" stroke="rgb(124,32,44)" stroke-width="1" opacity="0.984313725490196" d="M 112.5 1696 L 115 1696.5 L 112.5 1697 L 112.5 1696 Z " /><path fill="rgb(124,32,44)" stroke="rgb(124,32,44)" stroke-width="1" opacity="0.984313725490196" d="M 131.5 1696 L 134 1696.5 L 131.5 1697 L 131.5 1696 Z " /><path fill="rgb(124,32,44)" stroke="rgb(124,32,44)" stroke-width="1" opacity="0.984313725490196" d="M 137.5 1696 L 143 1696.5 L 137.5 1697 L 137.5 1696 Z " /><path fill="rgb(124,32,44)" stroke="rgb(124,32,44)" stroke-width="1" opacity="0.984313725490196" d="M 150.5 1696 L 154 1696.5 L 150.5 1697 L 150.5 1696 Z " /><path fill="rgb(124,32,44)" stroke="rgb(124,32,44)" stroke-width="1" opacity="0.984313725490196" d="M 157.5 1698 L 231 1698.5 L 157.5 1699 L 157.5 1698 Z " /><path fill="rgb(124,32,44)" stroke="rgb(124,32,44)" stroke-width="1" opacity="0.984313725490196" d="M 156.5 1773 L 161 1773.5 L 156.5 1774 L 156.5 1773 Z " /><path fill="rgb(124,32,44)" stroke="rgb(124,32,44)" stroke-width="1" opacity="0.984313725490196" d="M 225.5 1773 L 231 1773.5 L 225.5 1774 L 225.5 1773 Z " /><path fill="rgb(124,32,44)" stroke="rgb(124,32,44)" stroke-width="1" opacity="0.984313725490196" d="M 234.5 1775 L 308 1775.5 L 234.5 1776 L 233.5 1777 L 234.5 1775 Z " /><path fill="rgb(124,32,44)" stroke="rgb(124,32,44)" stroke-width="1" opacity="0.984313725490196" d="M 296.5 1850 L 308 1850.5 L 296.5 1851 L 296.5 1850 Z " /><path fill="rgb(124,32,44)" stroke="rgb(124,32,44)" stroke-width="1" opacity="0.984313725490196" d="M 311.5 1852 L 461.5 1852 L 463 1853.5 L 463 1926.5 L 461.5 1928 L 459 1927.5 L 462 1927 L 462 1853 L 311 1853 L 310.5 1868 L 310 1853.5 L 311.5 1852 Z " /><path fill="rgb(124,32,44)" stroke="rgb(124,32,44)" stroke-width="1" opacity="0.984313725490196" d="M 310.5 1915 L 311 1917.5 L 310 1917.5 L 310.5 1915 Z " /><path fill="rgb(124,32,44)" stroke="rgb(124,32,44)" stroke-width="1" opacity="0.984313725490196" d="M 310.5 1919 L 311 1924.5 L 310 1924.5 L 310.5 1919 Z " /><path fill="rgb(124,32,44)" stroke="rgb(124,32,44)" stroke-width="1" opacity="0.984313725490196" d="M 1543.5 1928 L 1544 1932.5 L 1543 1932.5 L 1543.5 1928 Z " /><path fill="rgb(124,32,44)" stroke="rgb(124,32,44)" stroke-width="1" opacity="0.984313725490196" d="M 465.5 1929 L 769.5 1929 L 771 1930.5 L 769.5 1930 L 465.5 1930 L 465 1930.5 L 465 2004.5 L 464 2004.5 L 464 1930.5 L 465.5 1929 Z " /><path fill="rgb(124,32,44)" stroke="rgb(124,32,44)" stroke-width="1" opacity="0.984313725490196" d="M 851.5 1929 L 1078 1929.5 L 851.5 1930 L 851.5 1929 Z " /><path fill="rgb(124,32,44)" stroke="rgb(124,32,44)" stroke-width="1" opacity="0.984313725490196" d="M 1079.5 1930 L 1080 2003.5 L 1076.5 2005 L 1076.5 2004 L 1079 2003.5 L 1079.5 1930 Z " /><path fill="rgb(124,32,44)" stroke="rgb(124,32,44)" stroke-width="1" opacity="0.984313725490196" d="M 1543.5 1998 L 1544 2002.5 L 1543 2002.5 L 1543.5 1998 Z " /><path fill="rgb(124,32,44)" stroke="rgb(124,32,44)" stroke-width="1" opacity="0.984313725490196" d="M 768.5 2004 L 771 2004.5 L 768.5 2005 L 768.5 2004 Z " /><path fill="rgb(124,32,44)" stroke="rgb(124,32,44)" stroke-width="1" opacity="0.984313725490196" d="M 1621 2005 L 1694.5 2005 L 1698 2007.5 L 1698 2080.5 L 1696.5 2082 L 1695 2081.5 L 1697 2081 L 1697 2007 L 1621.5 2007 L 1621 2005 Z " /><path fill="rgb(124,32,44)" stroke="rgb(124,32,44)" stroke-width="1" opacity="0.984313725490196" d="M 774.5 2006 L 847 2006.5 L 774.5 2007 L 774.5 2006 Z " /><path fill="rgb(124,32,44)" stroke="rgb(124,32,44)" stroke-width="1" opacity="0.984313725490196" d="M 1082.5 2006 L 1155.5 2006 L 1157 2007.5 L 1156.5 2159 L 1156 2007 L 1082.5 2007 L 1082 2008.5 L 1081 2008.5 L 1082.5 2006 Z " /><path fill="rgb(124,32,44)" stroke="rgb(124,32,44)" stroke-width="1" opacity="0.984313725490196" d="M 1620.5 2009 L 1621 2023.5 L 1620 2023.5 L 1620.5 2009 Z " /><path fill="rgb(124,32,44)" stroke="rgb(124,32,44)" stroke-width="1" opacity="0.984313725490196" d="M 1620.5 2029 L 1621 2031.5 L 1620 2031.5 L 1620.5 2029 Z " /><path fill="rgb(124,32,44)" stroke="rgb(124,32,44)" stroke-width="1" opacity="0.984313725490196" d="M 1620.5 2037 L 1621 2039.5 L 1620 2039.5 L 1620.5 2037 Z " /><path fill="rgb(124,32,44)" stroke="rgb(124,32,44)" stroke-width="1" opacity="0.984313725490196" d="M 1620.5 2048 L 1621 2058.5 L 1620 2058.5 L 1620.5 2048 Z " /><path fill="rgb(124,32,44)" stroke="rgb(124,32,44)" stroke-width="1" opacity="0.984313725490196" d="M 1620.5 2060 L 1621 2062.5 L 1620 2062.5 L 1620.5 2060 Z " /><path fill="rgb(124,32,44)" stroke="rgb(124,32,44)" stroke-width="1" opacity="0.984313725490196" d="M 1620.5 2065 L 1621 2080.5 L 1620 2080.5 L 1620.5 2065 Z " /><path fill="rgb(124,32,44)" stroke="rgb(124,32,44)" stroke-width="1" opacity="0.984313725490196" d="M 772.5 2081 L 773 2082.5 L 771.5 2084 L 696.5 2084 L 696.5 2083 L 771.5 2083 L 772.5 2081 Z " /><path fill="rgb(124,32,44)" stroke="rgb(124,32,44)" stroke-width="1" opacity="0.984313725490196" d="M 1080.5 2082 L 1079.5 2084 L 1004 2083.5 L 1079.5 2083 L 1080.5 2082 Z " /><path fill="rgb(124,32,44)" stroke="rgb(124,32,44)" stroke-width="1" opacity="0.984313725490196" d="M 695.5 2085 L 696 2157.5 L 695 2157.5 L 695.5 2085 Z " /><path fill="rgb(124,32,44)" stroke="rgb(124,32,44)" stroke-width="1" opacity="0.984313725490196" d="M 1697.5 2153 L 1698 2155.5 L 1697 2155.5 L 1697.5 2153 Z " /><path fill="rgb(138,97,76)" stroke="rgb(138,97,76)" stroke-width="1" opacity="0.9803921568627451" d="M 464.5 4 L 540 4.5 L 464 5 L 464 310.5 L 461.5 313 L 387 313 L 387 464.5 L 384.5 467 L 310 467 L 310 541.5 L 308.5 543 L 234.5 543 L 233 544.5 L 233 618.5 L 231.5 619 L 230.5 620 L 80.5 620 L 78 622.5 L 78 695.5 L 79.5 696 L 79.5 697 L 77 696.5 L 77 626.5 L 77 624.5 L 76 620 L 80.5 619 L 231 619 L 231 544.5 L 232.5 544 L 234.5 542 L 308 542 L 308 468.5 L 310 465 L 385.5 465 L 386 463.5 L 385 462.5 L 385 320.5 Q 387.5 319 386 313.5 L 388.5 311 L 429.5 311 L 432.5 310 L 436.5 311 L 437.5 310 L 462 310 L 462 13.5 Q 464.8 11.7 463 5.5 L 464.5 4 Z " /><path fill="rgb(138,97,76)" stroke="rgb(138,97,76)" stroke-width="1" opacity="0.9803921568627451" d="M 540.5 79 L 542.5 81 L 617 81.5 L 541.5 82 L 540.5 79 Z " /><path fill="rgb(138,97,76)" stroke="rgb(138,97,76)" stroke-width="1" opacity="0.9803921568627451" d="M 617.5 83 L 618 156.5 L 619.5 158 L 693.5 158 L 695 159.5 L 695 310.5 L 696.5 311 L 698.5 311 L 769.5 311 L 772 313.5 L 772 388 L 923.5 388 L 926 390.5 L 926 465 L 1001.5 465 L 1003 466.5 L 1004 468.5 L 1004 542 L 1078.5 542 L 1081 544.5 L 1081 619 L 1155.5 619 L 1158 621.5 L 1158 675.5 L 1159 676.5 L 1159 685.5 L 1158 687.5 L 1159 692.5 L 1158 695.5 L 1158.5 697 L 1157 696.5 L 1157 621.5 L 1155.5 620 L 1081.5 620 L 1080 618.5 L 1080 545.5 L 1077.5 543 L 1004.5 543 L 1003 541.5 L 1003 468.5 L 1001.5 467 L 928.5 467 L 925 464.5 L 925 390 L 773.5 390 L 771 387.5 L 771 313 L 696.5 313 L 694 310.5 L 694 159 L 619.5 159 L 617 158 L 617.5 83 Z " /><path fill="rgb(138,97,76)" stroke="rgb(138,97,76)" stroke-width="1" opacity="0.9803921568627451" d="M 541.5 542 L 617 542.5 L 541 543 L 540.5 545 L 540 543.5 L 541.5 542 Z " /><path fill="rgb(138,97,76)" stroke="rgb(138,97,76)" stroke-width="1" opacity="0.9803921568627451" d="M 618.5 543 L 619 619.5 L 615.5 622 L 543.5 622 L 540 619.5 L 541.5 620 L 616.5 620 L 618 618.5 L 618.5 543 Z " /><path fill="rgb(138,97,76)" stroke="rgb(138,97,76)" stroke-width="1" opacity="0.9803921568627451" d="M 310.5 696 L 462.5 696 L 464 697.5 L 463.5 773 L 463 697 L 310.5 697 L 310.5 696 Z " /><path fill="rgb(138,97,76)" stroke="rgb(138,97,76)" stroke-width="1" opacity="0.9803921568627451" d="M 849.5 696 L 1002.5 696 L 1004 697.5 L 1003.5 699 L 1003 697 L 849.5 697 L 848.5 698 L 849.5 696 Z " /><path fill="rgb(138,97,76)" stroke="rgb(138,97,76)" stroke-width="1" opacity="0.9803921568627451" d="M 1160.5 696 L 1309.5 696 L 1313 697 L 1313 771.5 L 1312 772.5 L 1387.5 773 L 1390 774 L 1390 848.5 L 1389 849.5 L 1390 851.5 L 1389 852.5 L 1389 926.5 L 1389.5 928 L 1388 926.5 L 1388 851.5 L 1387 850.5 L 1388 849.5 L 1388 774 L 1313.5 774 L 1312 775.5 L 1312 849.5 L 1313 850.5 L 1311 851 L 1311 775.5 L 1310 773.5 L 1311 772.5 L 1311 698.5 L 1309.5 697 L 1160.5 697 L 1160.5 696 Z " /><path fill="rgb(138,97,76)" stroke="rgb(138,97,76)" stroke-width="1" opacity="0.9803921568627451" d="M 231 697 L 233 697.5 L 233 850 L 308 850 L 308.5 698 L 309 849.5 L 307.5 851 L 233.5 851 L 231 847.5 L 231 697 Z " /><path fill="rgb(138,97,76)" stroke="rgb(138,97,76)" stroke-width="1" opacity="0.9803921568627451" d="M 1082 697 L 1155.5 697 L 1156 698.5 L 1157 699.5 L 1157 774 L 1236 774.5 L 1234 776.5 L 1234 851 L 1081 851 L 1081 926.5 L 1079.5 928 L 1004 928 L 1004 1003.5 L 1002.5 1005 L 696.5 1005 L 695 1006.5 L 695 1082 L 542 1082 L 542 1006 L 616.5 1006 L 619 1005 L 618 851.5 L 619 851.5 L 619 927.5 L 619.5 928 L 927 928 L 926 776.5 L 927 776.5 L 927 851 L 1004 851 L 1004 774.5 L 1003 773.5 L 1004.5 774 L 1081 774 L 1081 699.5 L 1082 697 Z " /><path fill="rgb(138,97,76)" stroke="rgb(138,97,76)" stroke-width="1" opacity="0.9803921568627451" d="M 465.5 773 L 539.5 773 L 541 774.5 L 540.5 776 L 540 774 L 465.5 774 L 465.5 773 Z " /><path fill="rgb(138,97,76)" stroke="rgb(138,97,76)" stroke-width="1" opacity="0.9803921568627451" d="M 618.5 773 L 618 774.5 L 617.5 776 L 617 774.5 L 618.5 773 Z " /><path fill="rgb(138,97,76)" stroke="rgb(138,97,76)" stroke-width="1" opacity="0.9803921568627451" d="M 156.5 850 L 229 850.5 L 156 851 L 156 927 L 231 927 L 231.5 851 L 232 926.5 L 230.5 928 L 155 928 L 154.5 1081 L 154 928.5 L 155 926.5 L 153 922.5 L 154 921.5 L 154 851 L 156.5 850 Z " /><path fill="rgb(138,97,76)" stroke="rgb(138,97,76)" stroke-width="1" opacity="0.9803921568627451" d="M 542.5 850 L 617 850.5 L 542.5 851 L 542.5 850 Z " /><path fill="rgb(138,97,76)" stroke="rgb(138,97,76)" stroke-width="1" opacity="0.9803921568627451" d="M 1391.5 850 L 1464.5 850 L 1467 851 L 1466.5 926 L 1466 910.5 L 1465 909.5 L 1466 908.5 L 1466 853.5 L 1465 851 L 1391.5 851 L 1391.5 850 Z " /><path fill="rgb(138,97,76)" stroke="rgb(138,97,76)" stroke-width="1" opacity="0.9803921568627451" d="M 78.5 927 L 152 927.5 L 79.5 928 L 78 929.5 L 78 1081.5 L 75.5 1082 L 75.5 1081 Q 77.8 1081.8 77 1079.5 L 77 1077.5 L 77 928.5 L 78.5 927 Z " /><path fill="rgb(138,97,76)" stroke="rgb(138,97,76)" stroke-width="1" opacity="0.9803921568627451" d="M 1465 927 L 1542.5 927 L 1544 928.5 L 1544 1080.5 L 1545.5 1081 L 1545.5 1082 Q 1543.3 1081.3 1544 1083.5 L 1542 1082.5 L 1543 1080.5 L 1543 929.5 L 1541.5 928 L 1467.5 928 L 1465 929 L 1465 927 Z " /><path fill="rgb(138,97,76)" stroke="rgb(138,97,76)" stroke-width="1" opacity="0.9803921568627451" d="M 1158.5 1004 L 1234.5 1004 L 1236 1005.5 L 1236 1081 L 1311.5 1081 L 1313 1082.5 L 1313 1158 L 1388.5 1158 L 1390 1159.5 L 1390 1312 L 1465.5 1312 L 1467 1313.5 L 1467 1389 L 1541.5 1389 L 1543 1390.5 L 1543 1464.5 L 1544 1467 L 1617.5 1467 L 1620 1464.5 L 1620 1237.5 L 1618.5 1237 L 1620 1234.5 L 1620.5 1233 L 1621 1464.5 L 1620 1468 L 1544 1468 L 1544 1544.5 L 1543 1545.5 L 1543 1618.5 L 1544 1619.5 L 1544 1695.5 L 1543 1696.5 L 1543 1711.5 L 1542 1712.5 L 1542 1728.5 L 1543 1729.5 L 1543 1773 L 1540.5 1774 L 1390.5 1775 L 1389.5 1774 L 1313 1774 L 1313 1699.5 L 1310.5 1697 L 1236 1697 L 1236 1622.5 L 1233.5 1620 L 1159.5 1620 L 1158 1618.5 L 1158 1544.5 L 1156.5 1544 L 1155.5 1543 L 1082.5 1543 L 1081 1541.5 L 1081 1467.5 L 1079.5 1467 L 1078.5 1466 L 1005.5 1466 L 1004 1464.5 L 1004 1390.5 L 1002.5 1390 L 1001.5 1389 L 927 1389 L 926 1236.5 L 924.5 1235 L 850 1235 L 850 1159.5 L 848.5 1159 L 847.5 1158 L 774.5 1158 L 772 1159 L 772 1234.5 L 773 1235.5 L 771 1236 L 771 1083.5 L 772.5 1082 L 926 1082 L 926 1157.5 L 927.5 1158 L 928.5 1159 L 973.5 1159 L 974.5 1158 L 983.5 1158 L 984.5 1159 L 999.5 1159 L 1003 1158 L 1003 1082 L 1049.5 1082 L 1050.5 1081 L 1058.5 1081 L 1059.5 1082 L 1068.5 1082 L 1069.5 1081 L 1077.5 1081 L 1081 1082 L 1081 1157.5 L 1082.5 1159 L 1155.5 1159 L 1157 1157.5 L 1157 1005.5 L 1158.5 1004 Z M 1159 1005 L 1158 1009 L 1158 1017 L 1159 1018 L 1159 1082 L 1233 1082 L 1234 1081 L 1234 1007 L 1233 1005 L 1159 1005 Z M 1237 1082 L 1235 1084 L 1235 1158 L 1237 1159 L 1310 1159 L 1311 1158 L 1311 1084 L 1310 1082 L 1237 1082 Z M 1314 1159 L 1312 1161 L 1313 1312 L 1388 1312 L 1388 1161 L 1387 1159 L 1314 1159 Z M 928 1236 L 928 1313 L 1002 1313 L 1003 1312 L 1003 1238 L 1002 1236 L 928 1236 Z M 1083 1236 L 1081 1238 L 1081 1312 L 1083 1313 L 1156 1313 L 1157 1312 L 1157 1238 L 1156 1236 L 1083 1236 Z M 1237 1236 L 1235 1238 L 1235 1312 L 1237 1313 L 1310 1313 L 1311 1310 L 1311 1238 L 1310 1236 L 1237 1236 Z M 1004 1313 L 1004 1389 L 1006 1390 L 1079 1390 L 1080 1389 L 1080 1315 L 1079 1313 L 1004 1313 Z M 1158 1313 L 1158 1389 L 1160 1390 L 1233 1390 L 1234 1389 L 1234 1313 L 1158 1313 Z M 1312 1314 L 1312 1389 L 1314 1390 L 1387 1390 L 1388 1389 L 1388 1314 L 1312 1314 Z M 1390 1314 L 1390 1389 L 1465 1389 L 1465 1314 L 1390 1314 Z M 1081 1390 L 1081 1465 L 1082 1466 L 1083 1467 L 1156 1467 L 1157 1466 L 1157 1392 L 1156 1390 L 1081 1390 Z M 1237 1390 L 1235 1392 L 1235 1466 L 1237 1467 L 1310 1467 L 1312 1465 L 1312 1392 L 1311 1390 L 1237 1390 Z M 1389 1391 L 1389 1465 L 1390 1467 L 1464 1467 L 1465 1466 L 1465 1391 L 1389 1391 Z M 1467 1391 L 1467 1466 L 1541 1466 L 1542 1465 L 1542 1391 L 1467 1391 Z M 1160 1467 L 1158 1469 L 1158 1542 L 1159 1544 L 1233 1544 L 1234 1543 L 1234 1467 L 1160 1467 Z M 1314 1467 L 1312 1469 L 1312 1543 L 1314 1544 L 1387 1544 L 1388 1543 L 1389 1543 L 1389 1469 L 1388 1467 L 1314 1467 Z M 1467 1468 L 1467 1544 L 1541 1544 L 1542 1543 L 1542 1468 L 1467 1468 Z M 1237 1544 L 1235 1546 L 1235 1619 L 1236 1620 L 1237 1621 L 1310 1621 L 1312 1619 L 1312 1546 L 1311 1544 L 1237 1544 Z M 1391 1544 L 1389 1546 L 1389 1619 L 1390 1621 L 1464 1621 L 1465 1620 L 1466 1620 L 1466 1546 L 1465 1544 L 1391 1544 Z M 1314 1621 L 1312 1623 L 1312 1696 L 1314 1697 L 1389 1697 L 1389 1623 L 1388 1621 L 1314 1621 Z M 1467 1621 L 1467 1697 L 1526 1697 Q 1528 1692 1535 1690 L 1540 1691 Q 1541 1693 1542 1691 Q 1544 1685 1541 1684 L 1542 1681 L 1542 1623 L 1541 1621 L 1467 1621 Z M 1532 1695 L 1533 1697 L 1539 1697 L 1539 1695 L 1532 1695 Z M 1391 1698 L 1389 1700 L 1389 1773 L 1466 1773 L 1466 1700 L 1465 1698 L 1391 1698 Z " /><path fill="rgb(138,97,76)" stroke="rgb(138,97,76)" stroke-width="1" opacity="0.9803921568627451" d="M 1548.5 1081 L 1552 1081.5 L 1548.5 1082 L 1548.5 1081 Z " /><path fill="rgb(138,97,76)" stroke="rgb(138,97,76)" stroke-width="1" opacity="0.9803921568627451" d="M 79 1082 L 154 1082 L 154 1235 L 79.5 1235 L 78 1236.5 L 78 1542.5 L 77 1543.5 L 153.5 1544 L 155 1545.5 L 155 1697.5 L 156.5 1698 L 156 1699.5 L 156 1774 L 231 1774 L 231.5 1699 L 232 1775 L 234 1775.5 L 233 1776.5 L 233 1851 L 308 1851 L 308 1775.5 L 309 1775.5 L 309 1851.5 L 310.5 1852 L 310 1853.5 L 310 1927.5 L 308 1928 L 308 1856.5 L 309 1852 L 233.5 1852 L 231 1851 L 231 1778.5 L 232 1775 L 226.5 1776 L 212.5 1776 L 210.5 1776 L 178.5 1776 L 176.5 1775 L 175.5 1776 L 163.5 1776 L 160.5 1775 L 154 1774 L 154 1700.5 L 155 1698 L 149.5 1699 L 148.5 1698 L 79.5 1698 L 77 1697 L 77 1549.5 L 76 1548.5 L 77 1544 L 1.5 1544 L 0 1542.5 L 0.5 1541 L 2.5 1543 L 77 1543 L 77 1236.5 L 79 1232.5 L 79 1082 Z M 78 1545 L 78 1696 L 80 1697 L 154 1697 L 154 1545 L 78 1545 Z " /><path fill="rgb(138,97,76)" stroke="rgb(138,97,76)" stroke-width="1" opacity="0.9803921568627451" d="M 465 1083 L 541 1083 L 541 1233.5 L 539.5 1235 L 465 1235 L 465 1083 Z " /><path fill="rgb(138,97,76)" stroke="rgb(138,97,76)" stroke-width="1" opacity="0.9803921568627451" d="M 1620.5 1083 L 1621 1087.5 L 1620 1087.5 L 1620.5 1083 Z " /><path fill="rgb(138,97,76)" stroke="rgb(138,97,76)" stroke-width="1" opacity="0.9803921568627451" d="M 0.5 1094 L 1 1096.5 L 0 1096.5 L 0.5 1094 Z " /><path fill="rgb(138,97,76)" stroke="rgb(138,97,76)" stroke-width="1" opacity="0.9803921568627451" d="M 0.5 1110 L 1 1113.5 L 0 1113.5 L 0.5 1110 Z " /><path fill="rgb(138,97,76)" stroke="rgb(138,97,76)" stroke-width="1" opacity="0.9803921568627451" d="M 1620.5 1111 L 1621 1128.5 L 1620 1128.5 L 1620.5 1111 Z " /><path fill="rgb(138,97,76)" stroke="rgb(138,97,76)" stroke-width="1" opacity="0.9803921568627451" d="M 0.5 1115 L 1 1119.5 L 0 1119.5 L 0.5 1115 Z " /><path fill="rgb(138,97,76)" stroke="rgb(138,97,76)" stroke-width="1" opacity="0.9803921568627451" d="M 0.5 1133 L 1 1135.5 L 0 1135.5 L 0.5 1133 Z " /><path fill="rgb(138,97,76)" stroke="rgb(138,97,76)" stroke-width="1" opacity="0.9803921568627451" d="M 1620.5 1142 L 1621 1144.5 L 1620 1144.5 L 1620.5 1142 Z " /><path fill="rgb(138,97,76)" stroke="rgb(138,97,76)" stroke-width="1" opacity="0.9803921568627451" d="M 0.5 1143 L 1 1146.5 L 0 1146.5 L 0.5 1143 Z " /><path fill="rgb(138,97,76)" stroke="rgb(138,97,76)" stroke-width="1" opacity="0.9803921568627451" d="M 1620.5 1147 L 1621 1149.5 L 1620 1149.5 L 1620.5 1147 Z " /><path fill="rgb(138,97,76)" stroke="rgb(138,97,76)" stroke-width="1" opacity="0.9803921568627451" d="M 1620.5 1206 L 1621 1212.5 L 1620 1212.5 L 1620.5 1206 Z " /><path fill="rgb(138,97,76)" stroke="rgb(138,97,76)" stroke-width="1" opacity="0.9803921568627451" d="M 1620.5 1219 L 1621 1221.5 L 1620 1221.5 L 1620.5 1219 Z " /><path fill="rgb(138,97,76)" stroke="rgb(138,97,76)" stroke-width="1" opacity="0.9803921568627451" d="M 1620.5 1224 L 1621 1226.5 L 1620 1226.5 L 1620.5 1224 Z " /><path fill="rgb(138,97,76)" stroke="rgb(138,97,76)" stroke-width="1" opacity="0.9803921568627451" d="M 1543.5 1233 L 1544 1235.5 L 1543 1235.5 L 1543.5 1233 Z " /><path fill="rgb(138,97,76)" stroke="rgb(138,97,76)" stroke-width="1" opacity="0.9803921568627451" d="M 1629.5 1235 L 1683 1235.5 L 1629.5 1236 L 1629.5 1235 Z " /><path fill="rgb(138,97,76)" stroke="rgb(138,97,76)" stroke-width="1" opacity="0.9803921568627451" d="M 1685.5 1235 L 1694 1235.5 L 1685.5 1236 L 1685.5 1235 Z " /><path fill="rgb(138,97,76)" stroke="rgb(138,97,76)" stroke-width="1" opacity="0.9803921568627451" d="M 847.5 1236 L 849 1236.5 L 849 1387.5 L 850 1389.5 L 848 1388.5 L 848 1237.5 L 847.5 1236 Z " /><path fill="rgb(138,97,76)" stroke="rgb(138,97,76)" stroke-width="1" opacity="0.9803921568627451" d="M 0.5 1302 L 1 1304.5 L 0 1304.5 L 0.5 1302 Z " /><path fill="rgb(138,97,76)" stroke="rgb(138,97,76)" stroke-width="1" opacity="0.9803921568627451" d="M 0.5 1311 L 1 1318.5 L 0 1318.5 L 0.5 1311 Z " /><path fill="rgb(138,97,76)" stroke="rgb(138,97,76)" stroke-width="1" opacity="0.9803921568627451" d="M 0.5 1320 L 1 1329.5 L 0 1329.5 L 0.5 1320 Z " /><path fill="rgb(138,97,76)" stroke="rgb(138,97,76)" stroke-width="1" opacity="0.9803921568627451" d="M 0.5 1332 L 1 1336.5 L 0 1336.5 L 0.5 1332 Z " /><path fill="rgb(138,97,76)" stroke="rgb(138,97,76)" stroke-width="1" opacity="0.9803921568627451" d="M 0.5 1338 L 1 1341.5 L 0 1341.5 L 0.5 1338 Z " /><path fill="rgb(138,97,76)" stroke="rgb(138,97,76)" stroke-width="1" opacity="0.9803921568627451" d="M 0.5 1347 L 1 1349.5 L 0 1349.5 L 0.5 1347 Z " /><path fill="rgb(138,97,76)" stroke="rgb(138,97,76)" stroke-width="1" opacity="0.9803921568627451" d="M 0.5 1357 L 1 1364.5 L 0 1364.5 L 0.5 1357 Z " /><path fill="rgb(138,97,76)" stroke="rgb(138,97,76)" stroke-width="1" opacity="0.9803921568627451" d="M 0.5 1369 L 1 1376.5 L 0 1376.5 L 0.5 1369 Z " /><path fill="rgb(138,97,76)" stroke="rgb(138,97,76)" stroke-width="1" opacity="0.9803921568627451" d="M 851.5 1390 L 925.5 1390 L 927 1391.5 L 927 1465.5 L 928.5 1467 L 1002.5 1467 L 1004 1468.5 L 1004 1543 L 1080.5 1543 L 1081 1544.5 L 1079.5 1544 L 1004.5 1544 L 1002 1541.5 L 1002 1468 L 928.5 1468 L 926 1467 L 925 1464.5 L 925 1391 L 851.5 1391 L 851.5 1390 Z " /><path fill="rgb(138,97,76)" stroke="rgb(138,97,76)" stroke-width="1" opacity="0.9803921568627451" d="M 0.5 1399 L 1 1404.5 L 0 1404.5 L 0.5 1399 Z " /><path fill="rgb(138,97,76)" stroke="rgb(138,97,76)" stroke-width="1" opacity="0.9803921568627451" d="M 0.5 1411 L 1 1422.5 L 0 1422.5 L 0.5 1411 Z " /><path fill="rgb(138,97,76)" stroke="rgb(138,97,76)" stroke-width="1" opacity="0.9803921568627451" d="M 0.5 1434 L 1 1437.5 L 0 1437.5 L 0.5 1434 Z " /><path fill="rgb(138,97,76)" stroke="rgb(138,97,76)" stroke-width="1" opacity="0.9803921568627451" d="M 0.5 1440 L 1 1447.5 L 0 1447.5 L 0.5 1440 Z " /><path fill="rgb(138,97,76)" stroke="rgb(138,97,76)" stroke-width="1" opacity="0.9803921568627451" d="M 0.5 1460 L 1 1462.5 L 0 1462.5 L 0.5 1460 Z " /><path fill="rgb(138,97,76)" stroke="rgb(138,97,76)" stroke-width="1" opacity="0.9803921568627451" d="M 0.5 1465 L 1 1468.5 L 0 1468.5 L 0.5 1465 Z " /><path fill="rgb(138,97,76)" stroke="rgb(138,97,76)" stroke-width="1" opacity="0.9803921568627451" d="M 0.5 1479 L 1 1487.5 L 0 1487.5 L 0.5 1479 Z " /><path fill="rgb(138,97,76)" stroke="rgb(138,97,76)" stroke-width="1" opacity="0.9803921568627451" d="M 0.5 1489 L 1 1518.5 L 0 1518.5 L 0.5 1489 Z " /><path fill="rgb(138,97,76)" stroke="rgb(138,97,76)" stroke-width="1" opacity="0.9803921568627451" d="M 0.5 1521 L 1 1536.5 L 0 1536.5 L 0.5 1521 Z " /><path fill="rgb(138,97,76)" stroke="rgb(138,97,76)" stroke-width="1" opacity="0.9803921568627451" d="M 1081.5 1619 L 1082.5 1620 L 1158 1620 L 1157.5 1622 L 1156.5 1621 L 1081 1621 L 1081.5 1619 Z " /><path fill="rgb(138,97,76)" stroke="rgb(138,97,76)" stroke-width="1" opacity="0.9803921568627451" d="M 1535.5 1673 L 1539 1674.5 L 1535.5 1677 L 1534 1674.5 L 1535.5 1673 Z " /><path fill="rgb(138,97,76)" stroke="rgb(138,97,76)" stroke-width="1" opacity="0.9803921568627451" d="M 1158.5 1696 L 1159.5 1697 L 1235 1697 L 1234.5 1699 L 1233.5 1698 L 1158 1698 L 1158.5 1696 Z " /><path fill="rgb(138,97,76)" stroke="rgb(138,97,76)" stroke-width="1" opacity="0.9803921568627451" d="M 1697.5 1771 L 1698 1774.5 L 1697 1774.5 L 1697.5 1771 Z " /><path fill="rgb(138,97,76)" stroke="rgb(138,97,76)" stroke-width="1" opacity="0.9803921568627451" d="M 1235.5 1775 L 1236 1926.5 L 1235 1926.5 L 1235.5 1775 Z " /><path fill="rgb(138,97,76)" stroke="rgb(138,97,76)" stroke-width="1" opacity="0.9803921568627451" d="M 1621 1776 L 1697 1776 L 1697 1850.5 L 1698 1853 L 1774 1853 L 1774 1927.5 L 1776.5 1930 L 1851 1930 L 1851 2004.5 L 1853.5 2007 L 1928 2007 L 1928 2082 L 1698.5 2082 L 1698 2085.5 L 1697 2085.5 L 1696.5 2083 L 1620.5 2083 L 1620.5 2082 L 1696.5 2082 L 1698.5 2080 L 1699.5 2081 L 1851 2081 L 1851 2007.5 L 1849.5 2006 L 1775.5 2006 L 1774 2004.5 L 1774 1930.5 L 1772.5 1930 L 1771.5 1929 L 1698.5 1929 L 1697 1927.5 L 1697 1853.5 L 1695.5 1853 L 1694.5 1852 L 1622.5 1852 L 1621 1852.5 L 1621 1776 Z " /><path fill="rgb(138,97,76)" stroke="rgb(138,97,76)" stroke-width="1" opacity="0.9803921568627451" d="M 463.5 1911 L 464 1917.5 L 463 1917.5 L 463.5 1911 Z " /><path fill="rgb(138,97,76)" stroke="rgb(138,97,76)" stroke-width="1" opacity="0.9803921568627451" d="M 463.5 1926 L 463.5 1928 L 769.5 1928 L 772 1930.5 L 772 2005 L 849 2005 L 849 1930.5 L 851.5 1928 L 1077.5 1928 L 1081 1930.5 L 1081 2005 L 1157.5 2005 L 1159.5 2005 L 1464 2005.5 L 1158 2006 L 1158 2012.5 L 1159 2013.5 L 1159 2093.5 L 1158 2098.5 L 1159 2099.5 L 1159 2159 L 1156.5 2160 L 1006.5 2160 L 1006.5 2159 L 1157 2159 L 1157 2007.5 L 1155.5 2006 L 1082.5 2006 L 1080.5 2006 L 849 2006 L 849 2158.5 L 847.5 2160 L 695 2160 L 695.5 2158 L 696.5 2159 L 848 2159 L 848 2007.5 L 846.5 2006 L 774.5 2006 L 773 2007.5 L 773 2080.5 L 772 2083 L 696.5 2083 L 696 2084.5 L 695 2084.5 L 696.5 2082 L 770.5 2082 L 772 2080.5 L 772 2006.5 L 771.5 2006 L 465.5 2006 L 465.5 2005 L 770.5 2005 L 771 2004.5 L 771 1930.5 L 769.5 1929 L 465.5 1929 L 464 1930.5 L 464 2004 L 462 2003.5 L 462 1934.5 L 463 1929 L 311 1928.5 L 461.5 1928 L 463.5 1926 Z M 852 1929 L 850 1931 L 850 2005 L 851 2005 L 1079 2005 L 1080 2004 L 1080 1930 L 1078 1929 L 852 1929 Z " /><path fill="rgb(138,97,76)" stroke="rgb(138,97,76)" stroke-width="1" opacity="0.9803921568627451" d="M 1159.5 1928 L 1235 1928.5 L 1159.5 1929 L 1158.5 1930 L 1159.5 1928 Z " /><path fill="rgb(138,97,76)" stroke="rgb(138,97,76)" stroke-width="1" opacity="0.9803921568627451" d="M 1467.5 1928 L 1543 1928.5 L 1467 1929 L 1466.5 1961 L 1466 1929.5 L 1467.5 1928 Z " /><path fill="rgb(138,97,76)" stroke="rgb(138,97,76)" stroke-width="1" opacity="0.9803921568627451" d="M 1466.5 1962 L 1467 2005 L 1465 2004.5 L 1466 2003.5 L 1466.5 1962 Z " /><path fill="rgb(138,97,76)" stroke="rgb(138,97,76)" stroke-width="1" opacity="0.9803921568627451" d="M 1620.5 2004 L 1697.5 2004 L 1698 2006.5 L 1696.5 2006 L 1694.5 2005 L 1621 2005 L 1620.5 2009 L 1620 2006 L 1543 2005.5 L 1619.5 2005 L 1620.5 2004 Z " /><path fill="rgb(138,97,76)" stroke="rgb(138,97,76)" stroke-width="1" opacity="0.9803921568627451" d="M 1935.5 2005 L 1938 2005.5 L 1935.5 2006 L 1935.5 2005 Z " /><path fill="rgb(138,97,76)" stroke="rgb(138,97,76)" stroke-width="1" opacity="0.9803921568627451" d="M 1941.5 2005 L 1946 2005.5 L 1941.5 2006 L 1941.5 2005 Z " /><path fill="rgb(138,97,76)" stroke="rgb(138,97,76)" stroke-width="1" opacity="0.9803921568627451" d="M 1948.5 2005 L 1951 2005.5 L 1948.5 2006 L 1948.5 2005 Z " /><path fill="rgb(138,97,76)" stroke="rgb(138,97,76)" stroke-width="1" opacity="0.9803921568627451" d="M 1698.5 2008 L 1699 2077.5 L 1698 2077.5 L 1698.5 2008 Z " /><path fill="rgb(138,97,76)" stroke="rgb(138,97,76)" stroke-width="1" opacity="0.9803921568627451" d="M 1080.5 2010 L 1081 2081.5 L 1079.5 2083 L 1004.5 2083 L 1004.5 2082 L 1080 2082 L 1080.5 2010 Z " /><path fill="rgb(138,97,76)" stroke="rgb(138,97,76)" stroke-width="1" opacity="0.9803921568627451" d="M 1929.5 2082 L 1957 2082.5 L 1929.5 2083 L 1929.5 2082 Z " /><path fill="rgb(138,97,76)" stroke="rgb(138,97,76)" stroke-width="1" opacity="0.9803921568627451" d="M 1003.5 2084 L 1004 2158.5 L 1005 2159.5 L 1003 2158.5 L 1003.5 2084 Z " /><path fill="rgb(138,97,76)" stroke="rgb(138,97,76)" stroke-width="1" opacity="0.9803921568627451" d="M 1701.5 2159 L 1929 2159.5 L 1701.5 2160 L 1701.5 2159 Z " /></svg>